<svg id="Layer_1" data-name="Layer 1" xmlns="http://www.w3.org/2000/svg" xmlns:xlink="http://www.w3.org/1999/xlink" width="8000" height="1000" viewBox="0 0 8000 1000"><defs><style>.cls-1{fill:url(#linear-gradient);}.cls-2{fill:#1a1a1a;}.cls-10,.cls-11,.cls-13,.cls-14,.cls-15,.cls-16,.cls-18,.cls-19,.cls-2,.cls-20,.cls-21,.cls-23,.cls-24,.cls-25,.cls-26,.cls-28,.cls-29,.cls-3,.cls-30,.cls-31,.cls-33,.cls-34,.cls-35,.cls-36,.cls-37,.cls-38,.cls-39,.cls-4,.cls-40,.cls-5,.cls-6,.cls-8,.cls-9{fill-rule:evenodd;}.cls-3{fill:url(#linear-gradient-2);}.cls-4{fill:url(#linear-gradient-3);}.cls-5{fill:url(#linear-gradient-4);}.cls-6{fill:url(#linear-gradient-5);}.cls-7{fill:url(#linear-gradient-6);}.cls-8{fill:url(#linear-gradient-7);}.cls-9{fill:url(#linear-gradient-8);}.cls-10{fill:url(#linear-gradient-9);}.cls-11{fill:url(#linear-gradient-10);}.cls-12{fill:url(#linear-gradient-11);}.cls-13{fill:url(#linear-gradient-12);}.cls-14{fill:url(#linear-gradient-13);}.cls-15{fill:url(#linear-gradient-14);}.cls-16{fill:url(#linear-gradient-15);}.cls-17{fill:url(#linear-gradient-16);}.cls-18{fill:url(#linear-gradient-17);}.cls-19{fill:url(#linear-gradient-18);}.cls-20{fill:url(#linear-gradient-19);}.cls-21{fill:url(#linear-gradient-20);}.cls-22{fill:url(#linear-gradient-21);}.cls-23{fill:url(#linear-gradient-22);}.cls-24{fill:url(#linear-gradient-23);}.cls-25{fill:url(#linear-gradient-24);}.cls-26{fill:url(#linear-gradient-25);}.cls-27{fill:url(#linear-gradient-26);}.cls-28{fill:url(#linear-gradient-27);}.cls-29{fill:url(#linear-gradient-28);}.cls-30{fill:url(#linear-gradient-29);}.cls-31{fill:url(#linear-gradient-30);}.cls-32{fill:url(#linear-gradient-31);}.cls-33{fill:url(#linear-gradient-32);}.cls-34{fill:url(#linear-gradient-33);}.cls-35{fill:url(#linear-gradient-34);}.cls-36{fill:url(#linear-gradient-35);}.cls-37{fill:url(#linear-gradient-36);}.cls-38{fill:url(#linear-gradient-37);}.cls-39{fill:url(#linear-gradient-38);}</style><linearGradient id="linear-gradient" x1="12" y1="689" x2="984" y2="689" gradientUnits="userSpaceOnUse"><stop offset="0" stop-color="#e6e6e6"/><stop offset="0.04" stop-color="#ddd"/><stop offset="0.09" stop-color="#c3c3c3"/><stop offset="0.13" stop-color="#b2b2b2"/><stop offset="0.42" stop-color="#7c7c7c"/><stop offset="0.58" stop-color="#666"/><stop offset="0.92" stop-color="#333"/></linearGradient><linearGradient id="linear-gradient-2" x1="482.03" y1="500.61" x2="480.1" y2="216.91" gradientUnits="userSpaceOnUse"><stop offset="0.15" stop-color="#06a475"/><stop offset="0.3" stop-color="#0bad7d"/><stop offset="0.55" stop-color="#18c590"/><stop offset="0.88" stop-color="#51e2be"/><stop offset="1" stop-color="#76edd0"/></linearGradient><linearGradient id="linear-gradient-3" x1="517.03" y1="500.11" x2="515.1" y2="216.41" gradientUnits="userSpaceOnUse"><stop offset="0.14" stop-color="#069871"/><stop offset="0.2" stop-color="#0ea179"/><stop offset="0.3" stop-color="#25bb8f"/><stop offset="0.34" stop-color="#30c799"/><stop offset="0.88" stop-color="#34dcaf"/><stop offset="1" stop-color="#fff"/></linearGradient><linearGradient id="linear-gradient-4" x1="510.82" y1="505.5" x2="509.06" y2="246.23" gradientUnits="userSpaceOnUse"><stop offset="0.02" stop-color="#088a6f"/><stop offset="0.05" stop-color="#0b9375"/><stop offset="0.09" stop-color="#15ad86"/><stop offset="0.13" stop-color="#20cc9a"/><stop offset="0.64" stop-color="#4ce2bc"/><stop offset="1" stop-color="#e6e6e6"/></linearGradient><linearGradient id="linear-gradient-5" x1="79.03" y1="674" x2="920.5" y2="674" gradientUnits="userSpaceOnUse"><stop offset="0.13" stop-color="#e6e6e6"/><stop offset="0.32" stop-color="#ccc"/><stop offset="0.62" stop-color="gray"/><stop offset="0.76" stop-color="#777"/><stop offset="0.91" stop-color="#666"/></linearGradient><linearGradient id="linear-gradient-6" x1="1012" y1="689" x2="1984" y2="689" gradientUnits="userSpaceOnUse"><stop offset="0" stop-color="#e6e6e6"/><stop offset="0.04" stop-color="#ddd"/><stop offset="0.09" stop-color="#c3c3c3"/><stop offset="0.13" stop-color="#b2b2b2"/><stop offset="0.35" stop-color="#7c7c7c"/><stop offset="0.45" stop-color="#666"/><stop offset="0.73" stop-color="#333"/></linearGradient><linearGradient id="linear-gradient-7" x1="1482.03" y1="500.61" x2="1480.1" y2="216.91" xlink:href="#linear-gradient-2"/><linearGradient id="linear-gradient-8" x1="1517.03" y1="500.11" x2="1515.1" y2="216.41" xlink:href="#linear-gradient-3"/><linearGradient id="linear-gradient-9" x1="1511" y1="530.57" x2="1509.23" y2="271.3" xlink:href="#linear-gradient-4"/><linearGradient id="linear-gradient-10" x1="1079.03" y1="674" x2="1920.5" y2="674" gradientUnits="userSpaceOnUse"><stop offset="0.13" stop-color="#e6e6e6"/><stop offset="0.32" stop-color="#ccc"/><stop offset="0.49" stop-color="gray"/><stop offset="0.69" stop-color="#777"/><stop offset="0.91" stop-color="#666"/></linearGradient><linearGradient id="linear-gradient-11" x1="2012" y1="689" x2="2984" y2="689" gradientUnits="userSpaceOnUse"><stop offset="0" stop-color="#e6e6e6"/><stop offset="0.04" stop-color="#ddd"/><stop offset="0.09" stop-color="#c3c3c3"/><stop offset="0.13" stop-color="#b2b2b2"/><stop offset="0.23" stop-color="#7c7c7c"/><stop offset="0.37" stop-color="#666"/><stop offset="0.61" stop-color="#333"/></linearGradient><linearGradient id="linear-gradient-12" x1="2482.03" y1="500.61" x2="2480.1" y2="216.91" xlink:href="#linear-gradient-2"/><linearGradient id="linear-gradient-13" x1="2517.03" y1="500.11" x2="2515.1" y2="216.41" xlink:href="#linear-gradient-3"/><linearGradient id="linear-gradient-14" x1="2511.18" y1="557.28" x2="2509.41" y2="298.01" xlink:href="#linear-gradient-4"/><linearGradient id="linear-gradient-15" x1="2079.03" y1="674" x2="2920.5" y2="674" gradientUnits="userSpaceOnUse"><stop offset="0.05" stop-color="#e6e6e6"/><stop offset="0.19" stop-color="#ccc"/><stop offset="0.36" stop-color="gray"/><stop offset="0.62" stop-color="#777"/><stop offset="0.91" stop-color="#666"/></linearGradient><linearGradient id="linear-gradient-16" x1="3012" y1="689" x2="3984" y2="689" gradientUnits="userSpaceOnUse"><stop offset="0" stop-color="#e6e6e6"/><stop offset="0.02" stop-color="#ddd"/><stop offset="0.05" stop-color="#c3c3c3"/><stop offset="0.07" stop-color="#b2b2b2"/><stop offset="0.16" stop-color="#7c7c7c"/><stop offset="0.22" stop-color="#666"/><stop offset="0.34" stop-color="#333"/></linearGradient><linearGradient id="linear-gradient-17" x1="3482.03" y1="500.61" x2="3480.1" y2="216.91" xlink:href="#linear-gradient-2"/><linearGradient id="linear-gradient-18" x1="3517.03" y1="500.11" x2="3515.1" y2="216.41" xlink:href="#linear-gradient-3"/><linearGradient id="linear-gradient-19" x1="3511.28" y1="571.77" x2="3509.51" y2="312.5" gradientUnits="userSpaceOnUse"><stop offset="0" stop-color="#088a6f"/><stop offset="0.03" stop-color="#0b9375"/><stop offset="0.09" stop-color="#15ad86"/><stop offset="0.14" stop-color="#20cc9a"/><stop offset="0.64" stop-color="#4ce2bc"/><stop offset="1" stop-color="#e6e6e6"/></linearGradient><linearGradient id="linear-gradient-20" x1="3079.03" y1="674" x2="3920.5" y2="674" gradientUnits="userSpaceOnUse"><stop offset="0" stop-color="#e6e6e6"/><stop offset="0.03" stop-color="#ccc"/><stop offset="0.16" stop-color="gray"/><stop offset="0.35" stop-color="#777"/><stop offset="0.58" stop-color="#666"/></linearGradient><linearGradient id="linear-gradient-21" x1="4012" y1="689" x2="4984" y2="689" gradientUnits="userSpaceOnUse"><stop offset="0" stop-color="#b2b2b2"/><stop offset="0.08" stop-color="#7c7c7c"/><stop offset="0.13" stop-color="#666"/><stop offset="0.19" stop-color="#333"/></linearGradient><linearGradient id="linear-gradient-22" x1="4482.03" y1="500.61" x2="4480.1" y2="216.91" xlink:href="#linear-gradient-2"/><linearGradient id="linear-gradient-23" x1="4517.03" y1="500.11" x2="4515.1" y2="216.41" xlink:href="#linear-gradient-3"/><linearGradient id="linear-gradient-24" x1="4511.98" y1="674.98" x2="4510.21" y2="415.71" xlink:href="#linear-gradient-19"/><linearGradient id="linear-gradient-25" x1="4079.03" y1="674" x2="4920.5" y2="674" gradientUnits="userSpaceOnUse"><stop offset="0" stop-color="#ccc"/><stop offset="0.06" stop-color="gray"/><stop offset="0.19" stop-color="#777"/><stop offset="0.33" stop-color="#666"/></linearGradient><linearGradient id="linear-gradient-26" x1="5012" y1="689" x2="5984" y2="689" gradientUnits="userSpaceOnUse"><stop offset="0" stop-color="#7c7c7c"/><stop offset="0.04" stop-color="#666"/><stop offset="0.06" stop-color="#333"/></linearGradient><linearGradient id="linear-gradient-27" x1="5482.03" y1="500.61" x2="5480.1" y2="216.91" xlink:href="#linear-gradient-2"/><linearGradient id="linear-gradient-28" x1="5517.03" y1="500.11" x2="5515.1" y2="216.41" xlink:href="#linear-gradient-3"/><linearGradient id="linear-gradient-29" x1="5512.47" y1="747.92" x2="5510.71" y2="488.65" gradientUnits="userSpaceOnUse"><stop offset="0.14" stop-color="#20cc9a"/><stop offset="0.64" stop-color="#4ce2bc"/><stop offset="1" stop-color="#e6e6e6"/></linearGradient><linearGradient id="linear-gradient-30" x1="5079.03" y1="674" x2="5920.5" y2="674" gradientUnits="userSpaceOnUse"><stop offset="0" stop-color="gray"/><stop offset="0.12" stop-color="#777"/><stop offset="0.26" stop-color="#666"/><stop offset="0.46" stop-color="#4d4d4d"/></linearGradient><linearGradient id="linear-gradient-31" x1="6012" y1="689" x2="6984" y2="689" gradientUnits="userSpaceOnUse"><stop offset="0.06" stop-color="#333"/><stop offset="0.82" stop-color="#1a1a1a"/></linearGradient><linearGradient id="linear-gradient-32" x1="6482.03" y1="500.61" x2="6480.1" y2="216.91" xlink:href="#linear-gradient-2"/><linearGradient id="linear-gradient-33" x1="6517.03" y1="500.11" x2="6515.1" y2="216.41" xlink:href="#linear-gradient-3"/><linearGradient id="linear-gradient-34" x1="6512.86" y1="804.25" x2="6511.09" y2="544.98" xlink:href="#linear-gradient-29"/><linearGradient id="linear-gradient-35" x1="6079.03" y1="674" x2="6920.5" y2="674" gradientUnits="userSpaceOnUse"><stop offset="0" stop-color="gray"/><stop offset="0.02" stop-color="#777"/><stop offset="0.03" stop-color="#666"/><stop offset="0.11" stop-color="#4d4d4d"/></linearGradient><linearGradient id="linear-gradient-36" x1="7482.03" y1="500.61" x2="7480.1" y2="216.91" xlink:href="#linear-gradient-2"/><linearGradient id="linear-gradient-37" x1="7517.03" y1="500.11" x2="7515.1" y2="216.41" xlink:href="#linear-gradient-3"/><linearGradient id="linear-gradient-38" x1="7512.86" y1="804.25" x2="7511.09" y2="544.98" xlink:href="#linear-gradient-29"/></defs><title>Artboard 6</title><ellipse class="cls-1" cx="498" cy="689" rx="486" ry="239.5"/><polygon class="cls-2" points="921 569 851.14 705.37 810.47 662.46 726 762.38 675.95 707.72 564.38 849.37 482 754.15 416.31 877 282.84 684.79 194.2 842.91 79.5 569 921 569"/><polygon class="cls-3" points="79 569 146 337 185 410 266 240 314 333 421 92 500 254 563 45 691 372 776 103 886 569 79 569"/><polygon class="cls-4" points="114 568.5 181 336.5 220 409.5 301 239.5 349 332.5 456 91.5 535 253.5 598 44.5 726 371.5 811 102.5 921 568.5 114 568.5"/><polygon class="cls-5" points="142.5 568 203.73 355.98 239.37 422.69 313.39 267.33 357.26 352.32 455.05 132.08 527.24 280.13 584.82 89.13 701.79 387.97 779.47 142.13 880 568 142.5 568"/><polygon class="cls-6" points="920.5 569 850.64 661.98 809.97 632.72 725.51 700.85 675.46 663.58 563.89 760.16 481.52 695.24 415.83 779 282.36 647.95 193.73 755.76 79.03 569 920.5 569"/><ellipse class="cls-7" cx="1498" cy="689" rx="486" ry="239.5"/><polygon class="cls-2" points="1921 569 1851.14 705.37 1810.47 662.46 1726.01 762.38 1675.95 707.72 1564.38 849.37 1482 754.15 1416.31 877 1282.84 684.79 1194.2 842.91 1079.5 569 1921 569"/><polygon class="cls-8" points="1079 569 1146 337 1185 410 1266 240 1314 333 1421 92 1500 254 1563 45 1691 372 1776 103 1886 569 1079 569"/><polygon class="cls-9" points="1114 568.5 1181 336.5 1220 409.5 1301 239.5 1349 332.5 1456 91.5 1535 253.5 1598 44.5 1726 371.5 1811 102.5 1921 568.5 1114 568.5"/><polygon class="cls-10" points="1142.5 568 1203.73 355.98 1239.37 422.69 1313.39 267.33 1357.26 352.32 1455.05 132.08 1527.24 280.13 1584.82 89.13 1701.79 387.97 1779.47 142.13 1880 568 1142.5 568"/><polygon class="cls-11" points="1920.5 569 1850.64 661.98 1809.97 632.72 1725.51 700.85 1675.46 663.58 1563.89 760.16 1481.52 695.24 1415.83 779 1282.36 647.95 1193.73 755.76 1079.03 569 1920.5 569"/><ellipse class="cls-12" cx="2498" cy="689" rx="486" ry="239.5"/><polygon class="cls-2" points="2921 569 2851.14 705.37 2810.47 662.46 2726.01 762.38 2675.95 707.72 2564.38 849.37 2482 754.15 2416.31 877 2282.84 684.79 2194.2 842.91 2079.5 569 2921 569"/><polygon class="cls-13" points="2079 569 2146 337 2185 410 2266 240 2314 333 2421 92 2500 254 2563 45 2691 372 2776 103 2886 569 2079 569"/><polygon class="cls-14" points="2114 568.5 2181 336.5 2220 409.5 2301 239.5 2349 332.5 2456 91.5 2535 253.5 2598 44.5 2726 371.5 2811 102.5 2921 568.5 2114 568.5"/><polygon class="cls-15" points="2142.5 568 2203.73 355.98 2239.37 422.69 2313.39 267.33 2357.26 352.32 2455.05 132.08 2527.24 280.13 2584.82 89.13 2701.79 387.97 2779.47 142.13 2880 568 2142.5 568"/><polygon class="cls-16" points="2920.5 569 2850.64 661.98 2809.97 632.72 2725.51 700.85 2675.46 663.58 2563.89 760.16 2481.52 695.24 2415.83 779 2282.36 647.95 2193.73 755.76 2079.03 569 2920.5 569"/><ellipse class="cls-17" cx="3498" cy="689" rx="486" ry="239.5"/><polygon class="cls-2" points="3921 569 3851.14 705.37 3810.47 662.46 3726.01 762.38 3675.95 707.72 3564.38 849.37 3482 754.15 3416.31 877 3282.84 684.79 3194.2 842.91 3079.5 569 3921 569"/><polygon class="cls-18" points="3079 569 3146 337 3185 410 3266 240 3314 333 3421 92 3500 254 3563 45 3691 372 3776 103 3886 569 3079 569"/><polygon class="cls-19" points="3114 568.5 3181 336.5 3220 409.5 3301 239.5 3349 332.5 3456 91.5 3535 253.5 3598 44.5 3726 371.5 3811 102.5 3921 568.5 3114 568.5"/><polygon class="cls-20" points="3142.5 568 3203.73 355.98 3239.37 422.69 3313.39 267.33 3357.26 352.32 3455.05 132.08 3527.24 280.13 3584.82 89.13 3701.79 387.97 3779.47 142.13 3880 568 3142.5 568"/><polygon class="cls-21" points="3920.5 569 3850.64 661.98 3809.97 632.72 3725.51 700.85 3675.46 663.58 3563.89 760.16 3481.52 695.24 3415.83 779 3282.36 647.95 3193.73 755.76 3079.03 569 3920.5 569"/><ellipse class="cls-22" cx="4498" cy="689" rx="486" ry="239.5"/><polygon class="cls-2" points="4921 569 4851.14 705.37 4810.47 662.46 4726.01 762.38 4675.95 707.72 4564.38 849.37 4482 754.15 4416.31 877 4282.84 684.79 4194.2 842.91 4079.5 569 4921 569"/><polygon class="cls-23" points="4079 569 4146 337 4185 410 4266 240 4314 333 4421 92 4500 254 4563 45 4691 372 4776 103 4886 569 4079 569"/><polygon class="cls-24" points="4114 568.5 4181 336.5 4220 409.5 4301 239.5 4349 332.5 4456 91.5 4535 253.5 4598 44.5 4726 371.5 4811 102.5 4921 568.5 4114 568.5"/><polygon class="cls-25" points="4142.5 568 4203.73 355.98 4239.37 422.69 4313.4 267.33 4357.26 352.32 4455.05 132.08 4527.24 280.13 4584.82 89.13 4701.79 387.97 4779.47 142.13 4880 568 4142.5 568"/><polygon class="cls-26" points="4920.5 569 4850.64 661.98 4809.97 632.72 4725.51 700.85 4675.46 663.58 4563.89 760.16 4481.52 695.24 4415.83 779 4282.36 647.95 4193.73 755.76 4079.03 569 4920.5 569"/><ellipse class="cls-27" cx="5498" cy="689" rx="486" ry="239.5"/><polygon class="cls-2" points="5921 569 5851.14 705.37 5810.47 662.46 5726.01 762.38 5675.95 707.72 5564.38 849.37 5482 754.15 5416.31 877 5282.84 684.79 5194.2 842.91 5079.5 569 5921 569"/><polygon class="cls-28" points="5079 569 5146 337 5185 410 5266 240 5314 333 5421 92 5500 254 5563 45 5691 372 5776 103 5886 569 5079 569"/><polygon class="cls-29" points="5114 568.5 5181 336.5 5220 409.5 5301 239.5 5349 332.5 5456 91.5 5535 253.5 5598 44.5 5726 371.5 5811 102.5 5921 568.5 5114 568.5"/><polygon class="cls-30" points="5142.5 568 5203.73 355.98 5239.37 422.69 5313.4 267.33 5357.26 352.32 5455.05 132.08 5527.24 280.13 5584.82 89.13 5701.79 387.97 5779.47 142.13 5880 568 5142.5 568"/><polygon class="cls-31" points="5920.5 569 5850.64 661.98 5809.97 632.72 5725.51 700.85 5675.46 663.58 5563.89 760.16 5481.52 695.24 5415.83 779 5282.36 647.95 5193.73 755.76 5079.03 569 5920.5 569"/><ellipse class="cls-32" cx="6498" cy="689" rx="486" ry="239.5"/><polygon class="cls-2" points="6921 569 6851.14 705.37 6810.47 662.46 6726.01 762.38 6675.95 707.72 6564.38 849.37 6482 754.15 6416.31 877 6282.84 684.79 6194.2 842.91 6079.5 569 6921 569"/><polygon class="cls-33" points="6079 569 6146 337 6185 410 6266 240 6314 333 6421 92 6500 254 6563 45 6691 372 6776 103 6886 569 6079 569"/><polygon class="cls-34" points="6114 568.5 6181 336.5 6220 409.5 6301 239.5 6349 332.5 6456 91.5 6535 253.5 6598 44.5 6726 371.5 6811 102.5 6921 568.5 6114 568.5"/><polygon class="cls-35" points="6142.5 568 6203.73 355.98 6239.37 422.69 6313.4 267.33 6357.26 352.32 6455.05 132.08 6527.24 280.13 6584.82 89.13 6701.79 387.97 6779.47 142.13 6880 568 6142.5 568"/><polygon class="cls-36" points="6920.5 569 6850.64 661.98 6809.97 632.72 6725.51 700.85 6675.46 663.58 6563.89 760.16 6481.52 695.24 6415.83 779 6282.36 647.95 6193.73 755.76 6079.03 569 6920.5 569"/><ellipse cx="7498" cy="689" rx="486" ry="239.5"/><polygon class="cls-2" points="7921 569 7851.14 705.37 7810.47 662.46 7726.01 762.38 7675.95 707.72 7564.38 849.37 7482 754.15 7416.31 877 7282.84 684.79 7194.2 842.91 7079.5 569 7921 569"/><polygon class="cls-37" points="7079 569 7146 337 7185 410 7266 240 7314 333 7421 92 7500 254 7563 45 7691 372 7776 103 7886 569 7079 569"/><polygon class="cls-38" points="7114 568.5 7181 336.5 7220 409.5 7301 239.5 7349 332.5 7456 91.5 7535 253.5 7598 44.5 7726 371.5 7811 102.5 7921 568.5 7114 568.5"/><polygon class="cls-39" points="7142.5 568 7203.73 355.98 7239.37 422.69 7313.4 267.33 7357.26 352.32 7455.05 132.08 7527.24 280.13 7584.82 89.13 7701.79 387.97 7779.47 142.13 7880 568 7142.5 568"/><polygon class="cls-40" points="7920.5 569 7850.64 661.98 7809.97 632.72 7725.51 700.85 7675.46 663.58 7563.89 760.16 7481.52 695.24 7415.83 779 7282.36 647.95 7193.73 755.76 7079.03 569 7920.5 569"/></svg>
