<svg id="Layer_1" data-name="Layer 1" xmlns="http://www.w3.org/2000/svg" xmlns:xlink="http://www.w3.org/1999/xlink" width="15000" height="1000" viewBox="0 0 15000 1000"><defs><style>.cls-1{fill:url(#linear-gradient);}.cls-2{fill:#1a1a1a;}.cls-10,.cls-11,.cls-13,.cls-14,.cls-15,.cls-16,.cls-18,.cls-19,.cls-2,.cls-20,.cls-21,.cls-23,.cls-24,.cls-25,.cls-26,.cls-28,.cls-29,.cls-3,.cls-30,.cls-31,.cls-33,.cls-34,.cls-35,.cls-36,.cls-37,.cls-38,.cls-39,.cls-4,.cls-40,.cls-41,.cls-42,.cls-43,.cls-44,.cls-45,.cls-46,.cls-47,.cls-48,.cls-49,.cls-5,.cls-50,.cls-51,.cls-52,.cls-53,.cls-54,.cls-55,.cls-56,.cls-57,.cls-58,.cls-59,.cls-6,.cls-60,.cls-61,.cls-62,.cls-63,.cls-64,.cls-65,.cls-66,.cls-67,.cls-68,.cls-8,.cls-9{fill-rule:evenodd;}.cls-3{fill:url(#linear-gradient-2);}.cls-4{fill:url(#linear-gradient-3);}.cls-5{fill:url(#linear-gradient-4);}.cls-6{fill:url(#linear-gradient-5);}.cls-7{fill:url(#linear-gradient-6);}.cls-8{fill:url(#linear-gradient-7);}.cls-9{fill:url(#linear-gradient-8);}.cls-10{fill:url(#linear-gradient-9);}.cls-11{fill:url(#linear-gradient-10);}.cls-12{fill:url(#linear-gradient-11);}.cls-13{fill:url(#linear-gradient-12);}.cls-14{fill:url(#linear-gradient-13);}.cls-15{fill:url(#linear-gradient-14);}.cls-16{fill:url(#linear-gradient-15);}.cls-17{fill:url(#linear-gradient-16);}.cls-18{fill:url(#linear-gradient-17);}.cls-19{fill:url(#linear-gradient-18);}.cls-20{fill:url(#linear-gradient-19);}.cls-21{fill:url(#linear-gradient-20);}.cls-22{fill:url(#linear-gradient-21);}.cls-23{fill:url(#linear-gradient-22);}.cls-24{fill:url(#linear-gradient-23);}.cls-25{fill:url(#linear-gradient-24);}.cls-26{fill:url(#linear-gradient-25);}.cls-27{fill:url(#linear-gradient-26);}.cls-28{fill:url(#linear-gradient-27);}.cls-29{fill:url(#linear-gradient-28);}.cls-30{fill:url(#linear-gradient-29);}.cls-31{fill:url(#linear-gradient-30);}.cls-32{fill:url(#linear-gradient-31);}.cls-33{fill:url(#linear-gradient-32);}.cls-34{fill:url(#linear-gradient-33);}.cls-35{fill:url(#linear-gradient-34);}.cls-36{fill:url(#linear-gradient-35);}.cls-37{fill:url(#linear-gradient-36);}.cls-38{fill:url(#linear-gradient-37);}.cls-39{fill:url(#linear-gradient-38);}.cls-41{fill:url(#linear-gradient-39);}.cls-42{fill:url(#linear-gradient-40);}.cls-43{fill:url(#linear-gradient-41);}.cls-44{fill:url(#linear-gradient-42);}.cls-45{fill:url(#linear-gradient-43);}.cls-46{fill:url(#linear-gradient-44);}.cls-47{fill:url(#linear-gradient-45);}.cls-48{fill:url(#linear-gradient-46);}.cls-49{fill:url(#linear-gradient-47);}.cls-50{fill:url(#linear-gradient-48);}.cls-51{fill:url(#linear-gradient-49);}.cls-52{fill:url(#linear-gradient-50);}.cls-53{fill:url(#linear-gradient-51);}.cls-54{fill:url(#linear-gradient-52);}.cls-55{fill:url(#linear-gradient-53);}.cls-56{fill:url(#linear-gradient-54);}.cls-57{fill:url(#linear-gradient-55);}.cls-58{fill:url(#linear-gradient-56);}.cls-59{fill:url(#linear-gradient-57);}.cls-60{fill:url(#linear-gradient-58);}.cls-61{fill:url(#linear-gradient-59);}.cls-62{fill:url(#linear-gradient-60);}.cls-63{fill:url(#linear-gradient-61);}.cls-64{fill:url(#linear-gradient-62);}.cls-65{fill:url(#linear-gradient-63);}.cls-66{fill:url(#linear-gradient-64);}.cls-67{fill:url(#linear-gradient-65);}.cls-68{fill:url(#linear-gradient-66);}</style><linearGradient id="linear-gradient" x1="12" y1="689" x2="984" y2="689" gradientUnits="userSpaceOnUse"><stop offset="0" stop-color="#e6e6e6"/><stop offset="0.04" stop-color="#ddd"/><stop offset="0.09" stop-color="#c3c3c3"/><stop offset="0.13" stop-color="#b2b2b2"/><stop offset="0.42" stop-color="#7c7c7c"/><stop offset="0.58" stop-color="#666"/><stop offset="0.92" stop-color="#333"/></linearGradient><linearGradient id="linear-gradient-2" x1="482.03" y1="500.61" x2="480.1" y2="216.91" gradientUnits="userSpaceOnUse"><stop offset="0.15" stop-color="#06a475"/><stop offset="0.3" stop-color="#0bad7d"/><stop offset="0.55" stop-color="#18c590"/><stop offset="0.88" stop-color="#51e2be"/><stop offset="1" stop-color="#76edd0"/></linearGradient><linearGradient id="linear-gradient-3" x1="517.03" y1="500.11" x2="515.1" y2="216.41" gradientUnits="userSpaceOnUse"><stop offset="0.14" stop-color="#069871"/><stop offset="0.2" stop-color="#0ea179"/><stop offset="0.3" stop-color="#25bb8f"/><stop offset="0.34" stop-color="#30c799"/><stop offset="0.88" stop-color="#34dcaf"/><stop offset="1" stop-color="#fff"/></linearGradient><linearGradient id="linear-gradient-4" x1="510.82" y1="505.5" x2="509.06" y2="246.23" gradientUnits="userSpaceOnUse"><stop offset="0.02" stop-color="#088a6f"/><stop offset="0.05" stop-color="#0b9375"/><stop offset="0.09" stop-color="#15ad86"/><stop offset="0.13" stop-color="#20cc9a"/><stop offset="0.64" stop-color="#4ce2bc"/><stop offset="1" stop-color="#e6e6e6"/></linearGradient><linearGradient id="linear-gradient-5" x1="79.03" y1="674" x2="920.5" y2="674" gradientUnits="userSpaceOnUse"><stop offset="0.13" stop-color="#e6e6e6"/><stop offset="0.32" stop-color="#ccc"/><stop offset="0.62" stop-color="gray"/><stop offset="0.76" stop-color="#777"/><stop offset="0.91" stop-color="#666"/></linearGradient><linearGradient id="linear-gradient-6" x1="1012" y1="689" x2="1984" y2="689" gradientUnits="userSpaceOnUse"><stop offset="0" stop-color="#e6e6e6"/><stop offset="0.04" stop-color="#ddd"/><stop offset="0.09" stop-color="#c3c3c3"/><stop offset="0.13" stop-color="#b2b2b2"/><stop offset="0.35" stop-color="#7c7c7c"/><stop offset="0.45" stop-color="#666"/><stop offset="0.73" stop-color="#333"/></linearGradient><linearGradient id="linear-gradient-7" x1="1482.03" y1="500.61" x2="1480.1" y2="216.91" xlink:href="#linear-gradient-2"/><linearGradient id="linear-gradient-8" x1="1517.03" y1="500.11" x2="1515.1" y2="216.41" xlink:href="#linear-gradient-3"/><linearGradient id="linear-gradient-9" x1="1511" y1="530.57" x2="1509.23" y2="271.3" xlink:href="#linear-gradient-4"/><linearGradient id="linear-gradient-10" x1="1079.03" y1="674" x2="1920.5" y2="674" gradientUnits="userSpaceOnUse"><stop offset="0.13" stop-color="#e6e6e6"/><stop offset="0.32" stop-color="#ccc"/><stop offset="0.49" stop-color="gray"/><stop offset="0.69" stop-color="#777"/><stop offset="0.91" stop-color="#666"/></linearGradient><linearGradient id="linear-gradient-11" x1="2012" y1="689" x2="2984" y2="689" gradientUnits="userSpaceOnUse"><stop offset="0" stop-color="#e6e6e6"/><stop offset="0.04" stop-color="#ddd"/><stop offset="0.09" stop-color="#c3c3c3"/><stop offset="0.13" stop-color="#b2b2b2"/><stop offset="0.23" stop-color="#7c7c7c"/><stop offset="0.37" stop-color="#666"/><stop offset="0.61" stop-color="#333"/></linearGradient><linearGradient id="linear-gradient-12" x1="2482.03" y1="500.61" x2="2480.1" y2="216.91" xlink:href="#linear-gradient-2"/><linearGradient id="linear-gradient-13" x1="2517.03" y1="500.11" x2="2515.1" y2="216.41" xlink:href="#linear-gradient-3"/><linearGradient id="linear-gradient-14" x1="2511.18" y1="557.28" x2="2509.41" y2="298.01" xlink:href="#linear-gradient-4"/><linearGradient id="linear-gradient-15" x1="2079.03" y1="674" x2="2920.5" y2="674" gradientUnits="userSpaceOnUse"><stop offset="0.05" stop-color="#e6e6e6"/><stop offset="0.19" stop-color="#ccc"/><stop offset="0.36" stop-color="gray"/><stop offset="0.62" stop-color="#777"/><stop offset="0.91" stop-color="#666"/></linearGradient><linearGradient id="linear-gradient-16" x1="3012" y1="689" x2="3984" y2="689" gradientUnits="userSpaceOnUse"><stop offset="0" stop-color="#e6e6e6"/><stop offset="0.02" stop-color="#ddd"/><stop offset="0.05" stop-color="#c3c3c3"/><stop offset="0.07" stop-color="#b2b2b2"/><stop offset="0.16" stop-color="#7c7c7c"/><stop offset="0.22" stop-color="#666"/><stop offset="0.34" stop-color="#333"/></linearGradient><linearGradient id="linear-gradient-17" x1="3482.03" y1="500.61" x2="3480.1" y2="216.91" xlink:href="#linear-gradient-2"/><linearGradient id="linear-gradient-18" x1="3517.03" y1="500.11" x2="3515.1" y2="216.41" xlink:href="#linear-gradient-3"/><linearGradient id="linear-gradient-19" x1="3511.28" y1="571.77" x2="3509.51" y2="312.5" gradientUnits="userSpaceOnUse"><stop offset="0" stop-color="#088a6f"/><stop offset="0.03" stop-color="#0b9375"/><stop offset="0.09" stop-color="#15ad86"/><stop offset="0.14" stop-color="#20cc9a"/><stop offset="0.64" stop-color="#4ce2bc"/><stop offset="1" stop-color="#e6e6e6"/></linearGradient><linearGradient id="linear-gradient-20" x1="3079.03" y1="674" x2="3920.5" y2="674" gradientUnits="userSpaceOnUse"><stop offset="0" stop-color="#e6e6e6"/><stop offset="0.03" stop-color="#ccc"/><stop offset="0.16" stop-color="gray"/><stop offset="0.35" stop-color="#777"/><stop offset="0.58" stop-color="#666"/></linearGradient><linearGradient id="linear-gradient-21" x1="4012" y1="689" x2="4984" y2="689" gradientUnits="userSpaceOnUse"><stop offset="0" stop-color="#b2b2b2"/><stop offset="0.08" stop-color="#7c7c7c"/><stop offset="0.13" stop-color="#666"/><stop offset="0.19" stop-color="#333"/></linearGradient><linearGradient id="linear-gradient-22" x1="4482.03" y1="500.61" x2="4480.1" y2="216.91" xlink:href="#linear-gradient-2"/><linearGradient id="linear-gradient-23" x1="4517.03" y1="500.11" x2="4515.1" y2="216.41" xlink:href="#linear-gradient-3"/><linearGradient id="linear-gradient-24" x1="4511.98" y1="674.98" x2="4510.21" y2="415.71" xlink:href="#linear-gradient-19"/><linearGradient id="linear-gradient-25" x1="4079.03" y1="674" x2="4920.5" y2="674" gradientUnits="userSpaceOnUse"><stop offset="0" stop-color="#ccc"/><stop offset="0.06" stop-color="gray"/><stop offset="0.19" stop-color="#777"/><stop offset="0.33" stop-color="#666"/></linearGradient><linearGradient id="linear-gradient-26" x1="5012" y1="689" x2="5984" y2="689" gradientUnits="userSpaceOnUse"><stop offset="0" stop-color="#7c7c7c"/><stop offset="0.04" stop-color="#666"/><stop offset="0.06" stop-color="#333"/></linearGradient><linearGradient id="linear-gradient-27" x1="5482.03" y1="500.61" x2="5480.1" y2="216.91" xlink:href="#linear-gradient-2"/><linearGradient id="linear-gradient-28" x1="5517.03" y1="500.11" x2="5515.1" y2="216.41" xlink:href="#linear-gradient-3"/><linearGradient id="linear-gradient-29" x1="5512.47" y1="747.92" x2="5510.71" y2="488.65" gradientUnits="userSpaceOnUse"><stop offset="0.14" stop-color="#20cc9a"/><stop offset="0.64" stop-color="#4ce2bc"/><stop offset="1" stop-color="#e6e6e6"/></linearGradient><linearGradient id="linear-gradient-30" x1="5079.03" y1="674" x2="5920.5" y2="674" gradientUnits="userSpaceOnUse"><stop offset="0" stop-color="gray"/><stop offset="0.12" stop-color="#777"/><stop offset="0.26" stop-color="#666"/><stop offset="0.46" stop-color="#4d4d4d"/></linearGradient><linearGradient id="linear-gradient-31" x1="6012" y1="689" x2="6984" y2="689" gradientUnits="userSpaceOnUse"><stop offset="0.06" stop-color="#333"/><stop offset="0.82" stop-color="#1a1a1a"/></linearGradient><linearGradient id="linear-gradient-32" x1="6482.03" y1="500.61" x2="6480.1" y2="216.91" xlink:href="#linear-gradient-2"/><linearGradient id="linear-gradient-33" x1="6517.03" y1="500.11" x2="6515.1" y2="216.41" xlink:href="#linear-gradient-3"/><linearGradient id="linear-gradient-34" x1="6512.86" y1="804.25" x2="6511.09" y2="544.98" xlink:href="#linear-gradient-29"/><linearGradient id="linear-gradient-35" x1="6079.03" y1="674" x2="6920.5" y2="674" gradientUnits="userSpaceOnUse"><stop offset="0" stop-color="gray"/><stop offset="0.02" stop-color="#777"/><stop offset="0.03" stop-color="#666"/><stop offset="0.11" stop-color="#4d4d4d"/></linearGradient><linearGradient id="linear-gradient-36" x1="7482.03" y1="500.61" x2="7480.1" y2="216.91" xlink:href="#linear-gradient-2"/><linearGradient id="linear-gradient-37" x1="7517.03" y1="500.11" x2="7515.1" y2="216.41" xlink:href="#linear-gradient-3"/><linearGradient id="linear-gradient-38" x1="7512.86" y1="804.25" x2="7511.09" y2="544.98" xlink:href="#linear-gradient-29"/><linearGradient id="linear-gradient-39" x1="8079.5" y1="726" x2="8921" y2="726" gradientUnits="userSpaceOnUse"><stop offset="0.92"/><stop offset="1" stop-color="#fff"/></linearGradient><linearGradient id="linear-gradient-40" x1="8482.03" y1="503.61" x2="8480.1" y2="219.91" xlink:href="#linear-gradient-2"/><linearGradient id="linear-gradient-41" x1="8517.03" y1="503.11" x2="8515.1" y2="219.41" xlink:href="#linear-gradient-3"/><linearGradient id="linear-gradient-42" x1="8512.86" y1="807.25" x2="8511.09" y2="547.98" xlink:href="#linear-gradient-29"/><linearGradient id="linear-gradient-43" x1="9080.5" y1="736" x2="9922" y2="736" gradientUnits="userSpaceOnUse"><stop offset="0.75"/><stop offset="1" stop-color="#fff"/></linearGradient><linearGradient id="linear-gradient-44" x1="9483.03" y1="513.61" x2="9481.1" y2="229.91" xlink:href="#linear-gradient-2"/><linearGradient id="linear-gradient-45" x1="9518.03" y1="513.11" x2="9516.1" y2="229.41" xlink:href="#linear-gradient-3"/><linearGradient id="linear-gradient-46" x1="9513.86" y1="817.25" x2="9512.09" y2="557.98" xlink:href="#linear-gradient-29"/><linearGradient id="linear-gradient-47" x1="10080.5" y1="736" x2="10922" y2="736" gradientUnits="userSpaceOnUse"><stop offset="0.52"/><stop offset="0.77" stop-color="#fff"/></linearGradient><linearGradient id="linear-gradient-48" x1="10483.03" y1="513.61" x2="10481.1" y2="229.91" xlink:href="#linear-gradient-2"/><linearGradient id="linear-gradient-49" x1="10518.03" y1="513.11" x2="10516.1" y2="229.41" xlink:href="#linear-gradient-3"/><linearGradient id="linear-gradient-50" x1="10513.86" y1="817.25" x2="10512.09" y2="557.98" xlink:href="#linear-gradient-29"/><linearGradient id="linear-gradient-51" x1="11079.5" y1="737" x2="11921" y2="737" gradientUnits="userSpaceOnUse"><stop offset="0.27"/><stop offset="0.63" stop-color="#fff"/></linearGradient><linearGradient id="linear-gradient-52" x1="11482.03" y1="514.61" x2="11480.1" y2="230.91" xlink:href="#linear-gradient-2"/><linearGradient id="linear-gradient-53" x1="11517.03" y1="514.11" x2="11515.1" y2="230.41" xlink:href="#linear-gradient-3"/><linearGradient id="linear-gradient-54" x1="11512.86" y1="818.25" x2="11511.09" y2="558.98" xlink:href="#linear-gradient-29"/><linearGradient id="linear-gradient-55" x1="12079.5" y1="736" x2="12921" y2="736" gradientUnits="userSpaceOnUse"><stop offset="0.16"/><stop offset="0.31" stop-color="#fff"/></linearGradient><linearGradient id="linear-gradient-56" x1="12482.03" y1="513.61" x2="12480.1" y2="229.91" xlink:href="#linear-gradient-2"/><linearGradient id="linear-gradient-57" x1="12517.03" y1="513.11" x2="12515.1" y2="229.41" xlink:href="#linear-gradient-3"/><linearGradient id="linear-gradient-58" x1="12512.86" y1="817.25" x2="12511.09" y2="557.98" xlink:href="#linear-gradient-29"/><linearGradient id="linear-gradient-59" x1="13079.5" y1="737" x2="13921" y2="737" gradientUnits="userSpaceOnUse"><stop offset="0.05"/><stop offset="0.17" stop-color="#fff"/></linearGradient><linearGradient id="linear-gradient-60" x1="13482.03" y1="514.61" x2="13480.1" y2="230.91" xlink:href="#linear-gradient-2"/><linearGradient id="linear-gradient-61" x1="13517.03" y1="514.11" x2="13515.1" y2="230.41" xlink:href="#linear-gradient-3"/><linearGradient id="linear-gradient-62" x1="13512.86" y1="818.25" x2="13511.09" y2="558.98" xlink:href="#linear-gradient-29"/><linearGradient id="linear-gradient-63" x1="14079.5" y1="736" x2="14921" y2="736" gradientUnits="userSpaceOnUse"><stop offset="0"/><stop offset="0" stop-color="#fff"/></linearGradient><linearGradient id="linear-gradient-64" x1="14482.03" y1="513.61" x2="14480.1" y2="229.91" xlink:href="#linear-gradient-2"/><linearGradient id="linear-gradient-65" x1="14517.03" y1="513.11" x2="14515.1" y2="229.41" xlink:href="#linear-gradient-3"/><linearGradient id="linear-gradient-66" x1="14512.86" y1="817.25" x2="14511.09" y2="557.98" xlink:href="#linear-gradient-29"/></defs><title>Artboard 6</title><ellipse class="cls-1" cx="498" cy="689" rx="486" ry="239.5"/><polygon class="cls-2" points="921 569 851.14 705.37 810.47 662.46 726 762.38 675.95 707.72 564.38 849.37 482 754.15 416.31 877 282.84 684.79 194.2 842.91 79.5 569 921 569"/><polygon class="cls-3" points="79 569 146 337 185 410 266 240 314 333 421 92 500 254 563 45 691 372 776 103 886 569 79 569"/><polygon class="cls-4" points="114 568.5 181 336.5 220 409.5 301 239.5 349 332.5 456 91.5 535 253.5 598 44.5 726 371.5 811 102.5 921 568.5 114 568.5"/><polygon class="cls-5" points="142.5 568 203.73 355.98 239.37 422.69 313.39 267.33 357.26 352.32 455.05 132.08 527.24 280.13 584.82 89.13 701.79 387.97 779.47 142.13 880 568 142.5 568"/><polygon class="cls-6" points="920.5 569 850.64 661.98 809.97 632.72 725.51 700.85 675.46 663.58 563.89 760.16 481.52 695.24 415.83 779 282.36 647.95 193.73 755.76 79.03 569 920.5 569"/><ellipse class="cls-7" cx="1498" cy="689" rx="486" ry="239.5"/><polygon class="cls-2" points="1921 569 1851.14 705.37 1810.47 662.46 1726.01 762.38 1675.95 707.72 1564.38 849.37 1482 754.15 1416.31 877 1282.84 684.79 1194.2 842.91 1079.5 569 1921 569"/><polygon class="cls-8" points="1079 569 1146 337 1185 410 1266 240 1314 333 1421 92 1500 254 1563 45 1691 372 1776 103 1886 569 1079 569"/><polygon class="cls-9" points="1114 568.5 1181 336.5 1220 409.5 1301 239.5 1349 332.5 1456 91.5 1535 253.5 1598 44.5 1726 371.5 1811 102.5 1921 568.5 1114 568.5"/><polygon class="cls-10" points="1142.5 568 1203.73 355.98 1239.37 422.69 1313.39 267.33 1357.26 352.32 1455.05 132.08 1527.24 280.13 1584.82 89.13 1701.79 387.97 1779.47 142.13 1880 568 1142.5 568"/><polygon class="cls-11" points="1920.5 569 1850.64 661.98 1809.97 632.72 1725.51 700.85 1675.46 663.58 1563.89 760.16 1481.52 695.24 1415.83 779 1282.36 647.95 1193.73 755.76 1079.03 569 1920.5 569"/><ellipse class="cls-12" cx="2498" cy="689" rx="486" ry="239.5"/><polygon class="cls-2" points="2921 569 2851.14 705.37 2810.47 662.46 2726.01 762.38 2675.95 707.72 2564.38 849.37 2482 754.15 2416.31 877 2282.84 684.79 2194.2 842.91 2079.5 569 2921 569"/><polygon class="cls-13" points="2079 569 2146 337 2185 410 2266 240 2314 333 2421 92 2500 254 2563 45 2691 372 2776 103 2886 569 2079 569"/><polygon class="cls-14" points="2114 568.5 2181 336.5 2220 409.5 2301 239.5 2349 332.5 2456 91.5 2535 253.5 2598 44.5 2726 371.5 2811 102.5 2921 568.5 2114 568.5"/><polygon class="cls-15" points="2142.5 568 2203.73 355.98 2239.37 422.69 2313.39 267.33 2357.26 352.32 2455.05 132.08 2527.24 280.13 2584.82 89.13 2701.79 387.97 2779.47 142.13 2880 568 2142.5 568"/><polygon class="cls-16" points="2920.5 569 2850.64 661.98 2809.97 632.72 2725.51 700.85 2675.46 663.58 2563.89 760.16 2481.52 695.24 2415.83 779 2282.36 647.95 2193.73 755.76 2079.03 569 2920.5 569"/><ellipse class="cls-17" cx="3498" cy="689" rx="486" ry="239.5"/><polygon class="cls-2" points="3921 569 3851.14 705.37 3810.47 662.46 3726.01 762.38 3675.95 707.72 3564.38 849.37 3482 754.15 3416.31 877 3282.84 684.79 3194.2 842.91 3079.5 569 3921 569"/><polygon class="cls-18" points="3079 569 3146 337 3185 410 3266 240 3314 333 3421 92 3500 254 3563 45 3691 372 3776 103 3886 569 3079 569"/><polygon class="cls-19" points="3114 568.5 3181 336.5 3220 409.5 3301 239.5 3349 332.5 3456 91.5 3535 253.5 3598 44.5 3726 371.5 3811 102.5 3921 568.5 3114 568.5"/><polygon class="cls-20" points="3142.5 568 3203.73 355.98 3239.37 422.69 3313.39 267.33 3357.26 352.32 3455.05 132.08 3527.24 280.13 3584.82 89.13 3701.79 387.97 3779.47 142.13 3880 568 3142.5 568"/><polygon class="cls-21" points="3920.5 569 3850.64 661.98 3809.97 632.72 3725.51 700.85 3675.46 663.58 3563.89 760.16 3481.52 695.24 3415.83 779 3282.36 647.95 3193.73 755.76 3079.03 569 3920.5 569"/><ellipse class="cls-22" cx="4498" cy="689" rx="486" ry="239.5"/><polygon class="cls-2" points="4921 569 4851.14 705.37 4810.47 662.46 4726.01 762.38 4675.95 707.72 4564.38 849.37 4482 754.15 4416.31 877 4282.84 684.79 4194.2 842.91 4079.5 569 4921 569"/><polygon class="cls-23" points="4079 569 4146 337 4185 410 4266 240 4314 333 4421 92 4500 254 4563 45 4691 372 4776 103 4886 569 4079 569"/><polygon class="cls-24" points="4114 568.5 4181 336.5 4220 409.5 4301 239.5 4349 332.5 4456 91.5 4535 253.5 4598 44.5 4726 371.5 4811 102.5 4921 568.5 4114 568.5"/><polygon class="cls-25" points="4142.5 568 4203.73 355.98 4239.37 422.69 4313.4 267.33 4357.26 352.32 4455.05 132.08 4527.24 280.13 4584.82 89.13 4701.79 387.97 4779.47 142.13 4880 568 4142.5 568"/><polygon class="cls-26" points="4920.5 569 4850.64 661.98 4809.97 632.72 4725.51 700.85 4675.46 663.58 4563.89 760.16 4481.52 695.24 4415.83 779 4282.36 647.95 4193.73 755.76 4079.03 569 4920.5 569"/><ellipse class="cls-27" cx="5498" cy="689" rx="486" ry="239.5"/><polygon class="cls-2" points="5921 569 5851.14 705.37 5810.47 662.46 5726.01 762.38 5675.95 707.72 5564.38 849.37 5482 754.15 5416.31 877 5282.84 684.79 5194.2 842.91 5079.5 569 5921 569"/><polygon class="cls-28" points="5079 569 5146 337 5185 410 5266 240 5314 333 5421 92 5500 254 5563 45 5691 372 5776 103 5886 569 5079 569"/><polygon class="cls-29" points="5114 568.5 5181 336.5 5220 409.5 5301 239.5 5349 332.5 5456 91.5 5535 253.5 5598 44.5 5726 371.5 5811 102.5 5921 568.5 5114 568.5"/><polygon class="cls-30" points="5142.5 568 5203.73 355.98 5239.37 422.69 5313.4 267.33 5357.26 352.32 5455.05 132.08 5527.24 280.13 5584.82 89.13 5701.79 387.97 5779.47 142.13 5880 568 5142.5 568"/><polygon class="cls-31" points="5920.5 569 5850.64 661.98 5809.97 632.72 5725.51 700.85 5675.46 663.58 5563.89 760.16 5481.52 695.24 5415.83 779 5282.36 647.95 5193.73 755.76 5079.03 569 5920.5 569"/><ellipse class="cls-32" cx="6498" cy="689" rx="486" ry="239.5"/><polygon class="cls-2" points="6921 569 6851.14 705.37 6810.47 662.46 6726.01 762.38 6675.95 707.72 6564.38 849.37 6482 754.15 6416.31 877 6282.84 684.79 6194.2 842.91 6079.5 569 6921 569"/><polygon class="cls-33" points="6079 569 6146 337 6185 410 6266 240 6314 333 6421 92 6500 254 6563 45 6691 372 6776 103 6886 569 6079 569"/><polygon class="cls-34" points="6114 568.5 6181 336.5 6220 409.5 6301 239.5 6349 332.5 6456 91.5 6535 253.5 6598 44.5 6726 371.5 6811 102.5 6921 568.5 6114 568.5"/><polygon class="cls-35" points="6142.5 568 6203.73 355.98 6239.37 422.69 6313.4 267.33 6357.26 352.32 6455.05 132.08 6527.24 280.13 6584.82 89.13 6701.79 387.97 6779.47 142.13 6880 568 6142.5 568"/><polygon class="cls-36" points="6920.5 569 6850.64 661.98 6809.97 632.72 6725.51 700.85 6675.46 663.58 6563.89 760.16 6481.52 695.24 6415.83 779 6282.36 647.95 6193.73 755.76 6079.03 569 6920.5 569"/><ellipse cx="7498" cy="689" rx="486" ry="239.5"/><polygon class="cls-2" points="7921 569 7851.14 705.37 7810.47 662.46 7726.01 762.38 7675.95 707.72 7564.38 849.37 7482 754.15 7416.31 877 7282.84 684.79 7194.2 842.91 7079.5 569 7921 569"/><polygon class="cls-37" points="7079 569 7146 337 7185 410 7266 240 7314 333 7421 92 7500 254 7563 45 7691 372 7776 103 7886 569 7079 569"/><polygon class="cls-38" points="7114 568.5 7181 336.5 7220 409.5 7301 239.5 7349 332.5 7456 91.5 7535 253.5 7598 44.5 7726 371.5 7811 102.5 7921 568.5 7114 568.5"/><polygon class="cls-39" points="7142.5 568 7203.73 355.98 7239.37 422.69 7313.4 267.33 7357.26 352.32 7455.05 132.08 7527.24 280.13 7584.82 89.13 7701.79 387.97 7779.47 142.13 7880 568 7142.5 568"/><polygon class="cls-40" points="7920.5 569 7850.64 661.98 7809.97 632.72 7725.51 700.85 7675.46 663.58 7563.89 760.16 7481.52 695.24 7415.83 779 7282.36 647.95 7193.73 755.76 7079.03 569 7920.5 569"/><ellipse cx="8498" cy="692" rx="486" ry="239.5"/><polygon class="cls-41" points="8921 572 8851.14 708.37 8810.47 665.46 8726 765.38 8675.95 710.72 8564.38 852.37 8482 757.15 8416.31 880 8282.84 687.79 8194.2 845.91 8079.5 572 8921 572"/><polygon class="cls-42" points="8079 572 8146 340 8185 413 8266 243 8314 336 8421 95 8500 257 8563 48 8691 375 8776 106 8886 572 8079 572"/><polygon class="cls-43" points="8114 571.5 8181 339.5 8220 412.5 8301 242.5 8349 335.5 8456 94.5 8535 256.5 8598 47.5 8726 374.5 8811 105.5 8921 571.5 8114 571.5"/><polygon class="cls-44" points="8142.5 571 8203.73 358.98 8239.37 425.69 8313.4 270.33 8357.26 355.32 8455.05 135.08 8527.24 283.13 8584.82 92.13 8701.79 390.97 8779.47 145.13 8880 571 8142.5 571"/><polygon class="cls-40" points="8920.5 572 8850.64 664.98 8809.97 635.72 8725.51 703.85 8675.46 666.58 8563.89 763.16 8481.52 698.24 8415.83 782 8282.36 650.95 8193.73 758.76 8079.03 572 8920.5 572"/><ellipse cx="9499" cy="702" rx="486" ry="239.5"/><polygon class="cls-45" points="9922 582 9852.14 718.37 9811.47 675.46 9727 775.38 9676.95 720.72 9565.38 862.37 9483 767.15 9417.31 890 9283.84 697.79 9195.2 855.91 9080.5 582 9922 582"/><polygon class="cls-46" points="9080 582 9147 350 9186 423 9267 253 9315 346 9422 105 9501 267 9564 58 9692 385 9777 116 9887 582 9080 582"/><polygon class="cls-47" points="9115 581.5 9182 349.5 9221 422.5 9302 252.5 9350 345.5 9457 104.5 9536 266.5 9599 57.5 9727 384.5 9812 115.5 9922 581.5 9115 581.5"/><polygon class="cls-48" points="9143.5 581 9204.73 368.98 9240.37 435.69 9314.4 280.33 9358.26 365.32 9456.05 145.08 9528.24 293.13 9585.82 102.13 9702.79 400.97 9780.47 155.13 9881 581 9143.5 581"/><polygon class="cls-40" points="9921.5 582 9851.64 674.98 9810.97 645.72 9726.51 713.85 9676.46 676.58 9564.89 773.16 9482.52 708.24 9416.83 792 9283.36 660.95 9194.73 768.76 9080.03 582 9921.5 582"/><ellipse cx="10499" cy="702" rx="486" ry="239.5"/><polygon class="cls-49" points="10922 582 10852.14 718.37 10811.47 675.46 10727 775.38 10676.95 720.72 10565.38 862.37 10483 767.15 10417.31 890 10283.84 697.79 10195.2 855.91 10080.5 582 10922 582"/><polygon class="cls-50" points="10080 582 10147 350 10186 423 10267 253 10315 346 10422 105 10501 267 10564 58 10692 385 10777 116 10887 582 10080 582"/><polygon class="cls-51" points="10115 581.5 10182 349.5 10221 422.5 10302 252.5 10350 345.5 10457 104.5 10536 266.5 10599 57.5 10727 384.5 10812 115.5 10922 581.5 10115 581.5"/><polygon class="cls-52" points="10143.5 581 10204.73 368.98 10240.37 435.69 10314.4 280.33 10358.26 365.32 10456.05 145.08 10528.24 293.13 10585.82 102.13 10702.79 400.97 10780.47 155.13 10881 581 10143.5 581"/><polygon class="cls-40" points="10921.5 582 10851.64 674.98 10810.97 645.72 10726.51 713.85 10676.46 676.58 10564.89 773.16 10482.52 708.24 10416.83 792 10283.36 660.95 10194.73 768.76 10080.03 582 10921.5 582"/><ellipse cx="11498" cy="703" rx="486" ry="239.5"/><polygon class="cls-53" points="11921 583 11851.14 719.37 11810.47 676.46 11726 776.38 11675.95 721.72 11564.38 863.37 11482 768.15 11416.31 891 11282.84 698.79 11194.2 856.91 11079.5 583 11921 583"/><polygon class="cls-54" points="11079 583 11146 351 11185 424 11266 254 11314 347 11421 106 11500 268 11563 59 11691 386 11776 117 11886 583 11079 583"/><polygon class="cls-55" points="11114 582.5 11181 350.5 11220 423.5 11301 253.5 11349 346.5 11456 105.5 11535 267.5 11598 58.5 11726 385.5 11811 116.5 11921 582.5 11114 582.5"/><polygon class="cls-56" points="11142.5 582 11203.73 369.98 11239.37 436.69 11313.4 281.33 11357.26 366.32 11455.05 146.08 11527.24 294.13 11584.82 103.13 11701.79 401.97 11779.47 156.13 11880 582 11142.5 582"/><polygon class="cls-40" points="11920.5 583 11850.64 675.98 11809.97 646.72 11725.51 714.85 11675.46 677.58 11563.89 774.16 11481.52 709.24 11415.83 793 11282.36 661.95 11193.73 769.76 11079.03 583 11920.5 583"/><ellipse cx="12498" cy="702" rx="486" ry="239.5"/><polygon class="cls-57" points="12921 582 12851.14 718.37 12810.47 675.46 12726 775.38 12675.95 720.72 12564.38 862.37 12482 767.15 12416.31 890 12282.84 697.79 12194.2 855.91 12079.5 582 12921 582"/><polygon class="cls-58" points="12079 582 12146 350 12185 423 12266 253 12314 346 12421 105 12500 267 12563 58 12691 385 12776 116 12886 582 12079 582"/><polygon class="cls-59" points="12114 581.5 12181 349.5 12220 422.5 12301 252.5 12349 345.5 12456 104.5 12535 266.5 12598 57.5 12726 384.5 12811 115.5 12921 581.5 12114 581.5"/><polygon class="cls-60" points="12142.5 581 12203.73 368.98 12239.37 435.69 12313.4 280.33 12357.26 365.32 12455.05 145.08 12527.24 293.13 12584.82 102.13 12701.79 400.97 12779.47 155.13 12880 581 12142.5 581"/><polygon class="cls-40" points="12920.5 582 12850.64 674.98 12809.97 645.72 12725.51 713.85 12675.46 676.58 12563.89 773.16 12481.52 708.24 12415.83 792 12282.36 660.95 12193.73 768.76 12079.03 582 12920.5 582"/><ellipse cx="13498" cy="703" rx="486" ry="239.5"/><polygon class="cls-61" points="13921 583 13851.14 719.37 13810.47 676.46 13726 776.38 13675.95 721.72 13564.38 863.37 13482 768.15 13416.31 891 13282.84 698.79 13194.2 856.91 13079.5 583 13921 583"/><polygon class="cls-62" points="13079 583 13146 351 13185 424 13266 254 13314 347 13421 106 13500 268 13563 59 13691 386 13776 117 13886 583 13079 583"/><polygon class="cls-63" points="13114 582.5 13181 350.5 13220 423.5 13301 253.5 13349 346.5 13456 105.5 13535 267.5 13598 58.5 13726 385.5 13811 116.5 13921 582.5 13114 582.5"/><polygon class="cls-64" points="13142.5 582 13203.73 369.98 13239.37 436.69 13313.4 281.33 13357.26 366.32 13455.05 146.08 13527.24 294.13 13584.82 103.13 13701.79 401.97 13779.47 156.13 13880 582 13142.5 582"/><polygon class="cls-40" points="13920.5 583 13850.64 675.98 13809.97 646.72 13725.51 714.85 13675.46 677.58 13563.89 774.16 13481.52 709.24 13415.83 793 13282.36 661.95 13193.73 769.76 13079.03 583 13920.5 583"/><ellipse cx="14498" cy="702" rx="486" ry="239.5"/><polygon class="cls-65" points="14921 582 14851.14 718.37 14810.47 675.46 14726 775.38 14675.95 720.72 14564.38 862.37 14482 767.15 14416.31 890 14282.84 697.79 14194.2 855.91 14079.5 582 14921 582"/><polygon class="cls-66" points="14079 582 14146 350 14185 423 14266 253 14314 346 14421 105 14500 267 14563 58 14691 385 14776 116 14886 582 14079 582"/><polygon class="cls-67" points="14114 581.5 14181 349.5 14220 422.5 14301 252.5 14349 345.5 14456 104.5 14535 266.5 14598 57.5 14726 384.5 14811 115.5 14921 581.5 14114 581.5"/><polygon class="cls-68" points="14142.5 581 14203.73 368.98 14239.37 435.69 14313.4 280.33 14357.26 365.32 14455.05 145.08 14527.24 293.13 14584.82 102.13 14701.79 400.97 14779.47 155.13 14880 581 14142.5 581"/><polygon class="cls-40" points="14920.5 582 14850.64 674.98 14809.97 645.72 14725.51 713.85 14675.46 676.58 14563.89 773.16 14481.52 708.24 14415.83 792 14282.36 660.95 14193.73 768.76 14079.03 582 14920.5 582"/></svg>
