<svg id="Layer_1" data-name="Layer 1" xmlns="http://www.w3.org/2000/svg" xmlns:xlink="http://www.w3.org/1999/xlink" width="15000" height="1000" viewBox="0 0 15000 1000"><defs><style>.cls-1{fill:url(#linear-gradient);}.cls-2{fill:#1a1a1a;}.cls-10,.cls-11,.cls-13,.cls-14,.cls-15,.cls-16,.cls-18,.cls-19,.cls-2,.cls-20,.cls-21,.cls-23,.cls-24,.cls-25,.cls-26,.cls-28,.cls-29,.cls-3,.cls-30,.cls-31,.cls-33,.cls-34,.cls-35,.cls-36,.cls-37,.cls-38,.cls-39,.cls-4,.cls-40,.cls-42,.cls-43,.cls-44,.cls-45,.cls-47,.cls-48,.cls-49,.cls-5,.cls-50,.cls-52,.cls-53,.cls-54,.cls-55,.cls-57,.cls-58,.cls-59,.cls-6,.cls-60,.cls-62,.cls-63,.cls-64,.cls-65,.cls-67,.cls-68,.cls-69,.cls-70,.cls-71,.cls-72,.cls-73,.cls-8,.cls-9{fill-rule:evenodd;}.cls-3{fill:url(#linear-gradient-2);}.cls-4{fill:url(#linear-gradient-3);}.cls-5{fill:url(#linear-gradient-4);}.cls-6{fill:url(#linear-gradient-5);}.cls-7{fill:url(#linear-gradient-6);}.cls-8{fill:url(#linear-gradient-7);}.cls-9{fill:url(#linear-gradient-8);}.cls-10{fill:url(#linear-gradient-9);}.cls-11{fill:url(#linear-gradient-10);}.cls-12{fill:url(#linear-gradient-11);}.cls-13{fill:url(#linear-gradient-12);}.cls-14{fill:url(#linear-gradient-13);}.cls-15{fill:url(#linear-gradient-14);}.cls-16{fill:url(#linear-gradient-15);}.cls-17{fill:url(#linear-gradient-16);}.cls-18{fill:url(#linear-gradient-17);}.cls-19{fill:url(#linear-gradient-18);}.cls-20{fill:url(#linear-gradient-19);}.cls-21{fill:url(#linear-gradient-20);}.cls-22{fill:url(#linear-gradient-21);}.cls-23{fill:url(#linear-gradient-22);}.cls-24{fill:url(#linear-gradient-23);}.cls-25{fill:url(#linear-gradient-24);}.cls-26{fill:url(#linear-gradient-25);}.cls-27{fill:url(#linear-gradient-26);}.cls-28{fill:url(#linear-gradient-27);}.cls-29{fill:url(#linear-gradient-28);}.cls-30{fill:url(#linear-gradient-29);}.cls-31{fill:url(#linear-gradient-30);}.cls-32{fill:url(#linear-gradient-31);}.cls-33{fill:url(#linear-gradient-32);}.cls-34{fill:url(#linear-gradient-33);}.cls-35{fill:url(#linear-gradient-34);}.cls-36{fill:url(#linear-gradient-35);}.cls-37{fill:url(#linear-gradient-36);}.cls-38{fill:url(#linear-gradient-37);}.cls-39{fill:url(#linear-gradient-38);}.cls-41{fill:url(#linear-gradient-39);}.cls-42{fill:url(#linear-gradient-40);}.cls-43{fill:url(#linear-gradient-41);}.cls-44{fill:url(#linear-gradient-42);}.cls-45{fill:url(#linear-gradient-43);}.cls-46{fill:url(#linear-gradient-44);}.cls-47{fill:url(#linear-gradient-45);}.cls-48{fill:url(#linear-gradient-46);}.cls-49{fill:url(#linear-gradient-47);}.cls-50{fill:url(#linear-gradient-48);}.cls-51{fill:url(#linear-gradient-49);}.cls-52{fill:url(#linear-gradient-50);}.cls-53{fill:url(#linear-gradient-51);}.cls-54{fill:url(#linear-gradient-52);}.cls-55{fill:url(#linear-gradient-53);}.cls-56{fill:url(#linear-gradient-54);}.cls-57{fill:url(#linear-gradient-55);}.cls-58{fill:url(#linear-gradient-56);}.cls-59{fill:url(#linear-gradient-57);}.cls-60{fill:url(#linear-gradient-58);}.cls-61{fill:url(#linear-gradient-59);}.cls-62{fill:url(#linear-gradient-60);}.cls-63{fill:url(#linear-gradient-61);}.cls-64{fill:url(#linear-gradient-62);}.cls-65{fill:url(#linear-gradient-63);}.cls-66{fill:url(#linear-gradient-64);}.cls-67{fill:url(#linear-gradient-65);}.cls-68{fill:url(#linear-gradient-66);}.cls-69{fill:url(#linear-gradient-67);}.cls-70{fill:url(#linear-gradient-68);}.cls-71{fill:url(#linear-gradient-69);}.cls-72{fill:url(#linear-gradient-70);}.cls-73{fill:url(#linear-gradient-71);}</style><linearGradient id="linear-gradient" x1="7012" y1="689" x2="7984" y2="689" gradientUnits="userSpaceOnUse"><stop offset="0" stop-color="#e6e6e6"/><stop offset="0.04" stop-color="#ddd"/><stop offset="0.09" stop-color="#c3c3c3"/><stop offset="0.13" stop-color="#b2b2b2"/><stop offset="0.42" stop-color="#7c7c7c"/><stop offset="0.58" stop-color="#666"/><stop offset="0.92" stop-color="#333"/></linearGradient><linearGradient id="linear-gradient-2" x1="7482.03" y1="500.61" x2="7480.1" y2="216.91" gradientUnits="userSpaceOnUse"><stop offset="0.15" stop-color="#06a475"/><stop offset="0.3" stop-color="#0bad7d"/><stop offset="0.55" stop-color="#18c590"/><stop offset="0.88" stop-color="#51e2be"/><stop offset="1" stop-color="#76edd0"/></linearGradient><linearGradient id="linear-gradient-3" x1="7517.03" y1="500.11" x2="7515.1" y2="216.41" gradientUnits="userSpaceOnUse"><stop offset="0.14" stop-color="#069871"/><stop offset="0.2" stop-color="#0ea179"/><stop offset="0.3" stop-color="#25bb8f"/><stop offset="0.34" stop-color="#30c799"/><stop offset="0.88" stop-color="#34dcaf"/><stop offset="1" stop-color="#fff"/></linearGradient><linearGradient id="linear-gradient-4" x1="7510.82" y1="505.5" x2="7509.06" y2="246.23" gradientUnits="userSpaceOnUse"><stop offset="0.02" stop-color="#088a6f"/><stop offset="0.05" stop-color="#0b9375"/><stop offset="0.09" stop-color="#15ad86"/><stop offset="0.13" stop-color="#20cc9a"/><stop offset="0.64" stop-color="#4ce2bc"/><stop offset="1" stop-color="#e6e6e6"/></linearGradient><linearGradient id="linear-gradient-5" x1="7079.03" y1="674" x2="7920.5" y2="674" gradientUnits="userSpaceOnUse"><stop offset="0.13" stop-color="#e6e6e6"/><stop offset="0.32" stop-color="#ccc"/><stop offset="0.62" stop-color="gray"/><stop offset="0.76" stop-color="#777"/><stop offset="0.91" stop-color="#666"/></linearGradient><linearGradient id="linear-gradient-6" x1="8012" y1="689" x2="8984" y2="689" gradientUnits="userSpaceOnUse"><stop offset="0" stop-color="#e6e6e6"/><stop offset="0.04" stop-color="#ddd"/><stop offset="0.09" stop-color="#c3c3c3"/><stop offset="0.13" stop-color="#b2b2b2"/><stop offset="0.35" stop-color="#7c7c7c"/><stop offset="0.45" stop-color="#666"/><stop offset="0.73" stop-color="#333"/></linearGradient><linearGradient id="linear-gradient-7" x1="8482.03" y1="500.61" x2="8480.1" y2="216.91" xlink:href="#linear-gradient-2"/><linearGradient id="linear-gradient-8" x1="8517.03" y1="500.11" x2="8515.1" y2="216.41" xlink:href="#linear-gradient-3"/><linearGradient id="linear-gradient-9" x1="8511" y1="530.57" x2="8509.23" y2="271.3" xlink:href="#linear-gradient-4"/><linearGradient id="linear-gradient-10" x1="8079.03" y1="674" x2="8920.5" y2="674" gradientUnits="userSpaceOnUse"><stop offset="0.13" stop-color="#e6e6e6"/><stop offset="0.32" stop-color="#ccc"/><stop offset="0.49" stop-color="gray"/><stop offset="0.69" stop-color="#777"/><stop offset="0.91" stop-color="#666"/></linearGradient><linearGradient id="linear-gradient-11" x1="9012" y1="689" x2="9984" y2="689" gradientUnits="userSpaceOnUse"><stop offset="0" stop-color="#e6e6e6"/><stop offset="0.04" stop-color="#ddd"/><stop offset="0.09" stop-color="#c3c3c3"/><stop offset="0.13" stop-color="#b2b2b2"/><stop offset="0.23" stop-color="#7c7c7c"/><stop offset="0.37" stop-color="#666"/><stop offset="0.61" stop-color="#333"/></linearGradient><linearGradient id="linear-gradient-12" x1="9482.03" y1="500.61" x2="9480.1" y2="216.91" xlink:href="#linear-gradient-2"/><linearGradient id="linear-gradient-13" x1="9517.03" y1="500.11" x2="9515.1" y2="216.41" xlink:href="#linear-gradient-3"/><linearGradient id="linear-gradient-14" x1="9511.18" y1="557.28" x2="9509.41" y2="298.01" xlink:href="#linear-gradient-4"/><linearGradient id="linear-gradient-15" x1="9079.03" y1="674" x2="9920.5" y2="674" gradientUnits="userSpaceOnUse"><stop offset="0.05" stop-color="#e6e6e6"/><stop offset="0.19" stop-color="#ccc"/><stop offset="0.36" stop-color="gray"/><stop offset="0.62" stop-color="#777"/><stop offset="0.91" stop-color="#666"/></linearGradient><linearGradient id="linear-gradient-16" x1="10012" y1="689" x2="10984" y2="689" gradientUnits="userSpaceOnUse"><stop offset="0" stop-color="#e6e6e6"/><stop offset="0.02" stop-color="#ddd"/><stop offset="0.05" stop-color="#c3c3c3"/><stop offset="0.07" stop-color="#b2b2b2"/><stop offset="0.16" stop-color="#7c7c7c"/><stop offset="0.22" stop-color="#666"/><stop offset="0.34" stop-color="#333"/></linearGradient><linearGradient id="linear-gradient-17" x1="10482.03" y1="500.61" x2="10480.1" y2="216.91" xlink:href="#linear-gradient-2"/><linearGradient id="linear-gradient-18" x1="10517.03" y1="500.11" x2="10515.1" y2="216.41" xlink:href="#linear-gradient-3"/><linearGradient id="linear-gradient-19" x1="10511.28" y1="571.77" x2="10509.51" y2="312.5" gradientUnits="userSpaceOnUse"><stop offset="0" stop-color="#088a6f"/><stop offset="0.03" stop-color="#0b9375"/><stop offset="0.09" stop-color="#15ad86"/><stop offset="0.14" stop-color="#20cc9a"/><stop offset="0.64" stop-color="#4ce2bc"/><stop offset="1" stop-color="#e6e6e6"/></linearGradient><linearGradient id="linear-gradient-20" x1="10079.03" y1="674" x2="10920.5" y2="674" gradientUnits="userSpaceOnUse"><stop offset="0" stop-color="#e6e6e6"/><stop offset="0.03" stop-color="#ccc"/><stop offset="0.16" stop-color="gray"/><stop offset="0.35" stop-color="#777"/><stop offset="0.58" stop-color="#666"/></linearGradient><linearGradient id="linear-gradient-21" x1="11012" y1="689" x2="11984" y2="689" gradientUnits="userSpaceOnUse"><stop offset="0" stop-color="#b2b2b2"/><stop offset="0.08" stop-color="#7c7c7c"/><stop offset="0.13" stop-color="#666"/><stop offset="0.19" stop-color="#333"/></linearGradient><linearGradient id="linear-gradient-22" x1="11482.03" y1="500.61" x2="11480.1" y2="216.91" xlink:href="#linear-gradient-2"/><linearGradient id="linear-gradient-23" x1="11517.03" y1="500.11" x2="11515.1" y2="216.41" xlink:href="#linear-gradient-3"/><linearGradient id="linear-gradient-24" x1="11511.98" y1="674.98" x2="11510.21" y2="415.71" xlink:href="#linear-gradient-19"/><linearGradient id="linear-gradient-25" x1="11079.03" y1="674" x2="11920.5" y2="674" gradientUnits="userSpaceOnUse"><stop offset="0" stop-color="#ccc"/><stop offset="0.06" stop-color="gray"/><stop offset="0.19" stop-color="#777"/><stop offset="0.33" stop-color="#666"/></linearGradient><linearGradient id="linear-gradient-26" x1="12012" y1="689" x2="12984" y2="689" gradientUnits="userSpaceOnUse"><stop offset="0" stop-color="#7c7c7c"/><stop offset="0.04" stop-color="#666"/><stop offset="0.06" stop-color="#333"/></linearGradient><linearGradient id="linear-gradient-27" x1="12482.03" y1="500.61" x2="12480.1" y2="216.91" xlink:href="#linear-gradient-2"/><linearGradient id="linear-gradient-28" x1="12517.03" y1="500.11" x2="12515.1" y2="216.41" xlink:href="#linear-gradient-3"/><linearGradient id="linear-gradient-29" x1="12512.47" y1="747.92" x2="12510.71" y2="488.65" gradientUnits="userSpaceOnUse"><stop offset="0.14" stop-color="#20cc9a"/><stop offset="0.64" stop-color="#4ce2bc"/><stop offset="1" stop-color="#e6e6e6"/></linearGradient><linearGradient id="linear-gradient-30" x1="12079.03" y1="674" x2="12920.5" y2="674" gradientUnits="userSpaceOnUse"><stop offset="0" stop-color="gray"/><stop offset="0.12" stop-color="#777"/><stop offset="0.26" stop-color="#666"/><stop offset="0.46" stop-color="#4d4d4d"/></linearGradient><linearGradient id="linear-gradient-31" x1="13012" y1="689" x2="13984" y2="689" gradientUnits="userSpaceOnUse"><stop offset="0.06" stop-color="#333"/><stop offset="0.82" stop-color="#1a1a1a"/></linearGradient><linearGradient id="linear-gradient-32" x1="13482.03" y1="500.61" x2="13480.1" y2="216.91" xlink:href="#linear-gradient-2"/><linearGradient id="linear-gradient-33" x1="13517.03" y1="500.11" x2="13515.1" y2="216.41" xlink:href="#linear-gradient-3"/><linearGradient id="linear-gradient-34" x1="13512.86" y1="804.25" x2="13511.09" y2="544.98" xlink:href="#linear-gradient-29"/><linearGradient id="linear-gradient-35" x1="13079.03" y1="674" x2="13920.5" y2="674" gradientUnits="userSpaceOnUse"><stop offset="0" stop-color="gray"/><stop offset="0.02" stop-color="#777"/><stop offset="0.03" stop-color="#666"/><stop offset="0.11" stop-color="#4d4d4d"/></linearGradient><linearGradient id="linear-gradient-36" x1="14482.03" y1="500.61" x2="14480.1" y2="216.91" xlink:href="#linear-gradient-2"/><linearGradient id="linear-gradient-37" x1="14517.03" y1="500.11" x2="14515.1" y2="216.41" xlink:href="#linear-gradient-3"/><linearGradient id="linear-gradient-38" x1="14512.86" y1="804.25" x2="14511.09" y2="544.98" xlink:href="#linear-gradient-29"/><linearGradient id="linear-gradient-39" x1="6012" y1="703" x2="6984" y2="703" xlink:href="#linear-gradient-6"/><linearGradient id="linear-gradient-40" x1="6482.03" y1="514.61" x2="6480.1" y2="230.91" xlink:href="#linear-gradient-2"/><linearGradient id="linear-gradient-41" x1="6517.03" y1="514.11" x2="6515.1" y2="230.41" xlink:href="#linear-gradient-3"/><linearGradient id="linear-gradient-42" x1="6511" y1="544.57" x2="6509.23" y2="285.3" xlink:href="#linear-gradient-4"/><linearGradient id="linear-gradient-43" x1="6079.03" y1="688" x2="6920.5" y2="688" xlink:href="#linear-gradient-10"/><linearGradient id="linear-gradient-44" x1="5015" y1="703" x2="5987" y2="703" xlink:href="#linear-gradient-11"/><linearGradient id="linear-gradient-45" x1="5485.03" y1="514.61" x2="5483.1" y2="230.91" xlink:href="#linear-gradient-2"/><linearGradient id="linear-gradient-46" x1="5520.03" y1="514.11" x2="5518.1" y2="230.41" xlink:href="#linear-gradient-3"/><linearGradient id="linear-gradient-47" x1="5514.18" y1="571.28" x2="5512.41" y2="312.01" xlink:href="#linear-gradient-4"/><linearGradient id="linear-gradient-48" x1="5082.03" y1="688" x2="5923.5" y2="688" xlink:href="#linear-gradient-15"/><linearGradient id="linear-gradient-49" x1="4013" y1="703" x2="4985" y2="703" xlink:href="#linear-gradient-16"/><linearGradient id="linear-gradient-50" x1="4483.03" y1="514.61" x2="4481.1" y2="230.91" xlink:href="#linear-gradient-2"/><linearGradient id="linear-gradient-51" x1="4518.03" y1="514.11" x2="4516.1" y2="230.41" xlink:href="#linear-gradient-3"/><linearGradient id="linear-gradient-52" x1="4512.28" y1="585.77" x2="4510.51" y2="326.5" xlink:href="#linear-gradient-19"/><linearGradient id="linear-gradient-53" x1="4080.03" y1="688" x2="4921.5" y2="688" xlink:href="#linear-gradient-20"/><linearGradient id="linear-gradient-54" x1="3015" y1="703" x2="3987" y2="703" xlink:href="#linear-gradient-21"/><linearGradient id="linear-gradient-55" x1="3485.03" y1="514.61" x2="3483.1" y2="230.91" xlink:href="#linear-gradient-2"/><linearGradient id="linear-gradient-56" x1="3520.03" y1="514.11" x2="3518.1" y2="230.41" xlink:href="#linear-gradient-3"/><linearGradient id="linear-gradient-57" x1="3514.98" y1="688.98" x2="3513.21" y2="429.71" xlink:href="#linear-gradient-19"/><linearGradient id="linear-gradient-58" x1="3082.03" y1="688" x2="3923.5" y2="688" xlink:href="#linear-gradient-25"/><linearGradient id="linear-gradient-59" x1="2013" y1="703" x2="2985" y2="703" xlink:href="#linear-gradient-26"/><linearGradient id="linear-gradient-60" x1="2483.03" y1="514.61" x2="2481.1" y2="230.91" xlink:href="#linear-gradient-2"/><linearGradient id="linear-gradient-61" x1="2518.03" y1="514.11" x2="2516.1" y2="230.41" xlink:href="#linear-gradient-3"/><linearGradient id="linear-gradient-62" x1="2513.47" y1="761.92" x2="2511.71" y2="502.65" xlink:href="#linear-gradient-29"/><linearGradient id="linear-gradient-63" x1="2080.03" y1="688" x2="2921.5" y2="688" xlink:href="#linear-gradient-30"/><linearGradient id="linear-gradient-64" x1="1016" y1="703" x2="1988" y2="703" xlink:href="#linear-gradient-31"/><linearGradient id="linear-gradient-65" x1="1486.03" y1="514.61" x2="1484.1" y2="230.91" xlink:href="#linear-gradient-2"/><linearGradient id="linear-gradient-66" x1="1521.03" y1="514.11" x2="1519.1" y2="230.41" xlink:href="#linear-gradient-3"/><linearGradient id="linear-gradient-67" x1="1516.86" y1="818.25" x2="1515.09" y2="558.98" xlink:href="#linear-gradient-29"/><linearGradient id="linear-gradient-68" x1="1083.03" y1="688" x2="1924.5" y2="688" xlink:href="#linear-gradient-35"/><linearGradient id="linear-gradient-69" x1="484.03" y1="513.61" x2="482.1" y2="229.91" xlink:href="#linear-gradient-2"/><linearGradient id="linear-gradient-70" x1="519.03" y1="513.11" x2="517.1" y2="229.41" xlink:href="#linear-gradient-3"/><linearGradient id="linear-gradient-71" x1="514.86" y1="817.25" x2="513.09" y2="557.98" xlink:href="#linear-gradient-29"/></defs><title>Artboard 6</title><ellipse class="cls-1" cx="7498" cy="689" rx="486" ry="239.5"/><polygon class="cls-2" points="7921 569 7851.14 705.37 7810.47 662.46 7726.01 762.38 7675.95 707.72 7564.38 849.37 7482 754.15 7416.31 877 7282.84 684.79 7194.2 842.91 7079.5 569 7921 569"/><polygon class="cls-3" points="7079 569 7146 337 7185 410 7266 240 7314 333 7421 92 7500 254 7563 45 7691 372 7776 103 7886 569 7079 569"/><polygon class="cls-4" points="7114 568.5 7181 336.5 7220 409.5 7301 239.5 7349 332.5 7456 91.5 7535 253.5 7598 44.5 7726 371.5 7811 102.5 7921 568.5 7114 568.5"/><polygon class="cls-5" points="7142.5 568 7203.73 355.98 7239.37 422.69 7313.4 267.33 7357.26 352.32 7455.05 132.08 7527.24 280.13 7584.82 89.13 7701.79 387.97 7779.47 142.13 7880 568 7142.5 568"/><polygon class="cls-6" points="7920.5 569 7850.64 661.98 7809.97 632.72 7725.51 700.85 7675.46 663.58 7563.89 760.16 7481.52 695.24 7415.83 779 7282.36 647.95 7193.73 755.76 7079.03 569 7920.5 569"/><ellipse class="cls-7" cx="8498" cy="689" rx="486" ry="239.5"/><polygon class="cls-2" points="8921 569 8851.14 705.37 8810.47 662.46 8726 762.38 8675.95 707.72 8564.38 849.37 8482 754.15 8416.31 877 8282.84 684.79 8194.2 842.91 8079.5 569 8921 569"/><polygon class="cls-8" points="8079 569 8146 337 8185 410 8266 240 8314 333 8421 92 8500 254 8563 45 8691 372 8776 103 8886 569 8079 569"/><polygon class="cls-9" points="8114 568.5 8181 336.5 8220 409.5 8301 239.5 8349 332.5 8456 91.5 8535 253.5 8598 44.5 8726 371.5 8811 102.5 8921 568.5 8114 568.5"/><polygon class="cls-10" points="8142.5 568 8203.73 355.98 8239.37 422.69 8313.4 267.33 8357.26 352.32 8455.05 132.08 8527.24 280.13 8584.82 89.13 8701.79 387.97 8779.47 142.13 8880 568 8142.5 568"/><polygon class="cls-11" points="8920.5 569 8850.64 661.98 8809.97 632.72 8725.51 700.85 8675.46 663.58 8563.89 760.16 8481.52 695.24 8415.83 779 8282.36 647.95 8193.73 755.76 8079.03 569 8920.5 569"/><ellipse class="cls-12" cx="9498" cy="689" rx="486" ry="239.5"/><polygon class="cls-2" points="9921 569 9851.14 705.37 9810.47 662.46 9726 762.38 9675.95 707.72 9564.38 849.37 9482 754.15 9416.31 877 9282.84 684.79 9194.2 842.91 9079.5 569 9921 569"/><polygon class="cls-13" points="9079 569 9146 337 9185 410 9266 240 9314 333 9421 92 9500 254 9563 45 9691 372 9776 103 9886 569 9079 569"/><polygon class="cls-14" points="9114 568.5 9181 336.5 9220 409.5 9301 239.5 9349 332.5 9456 91.5 9535 253.5 9598 44.5 9726 371.5 9811 102.5 9921 568.5 9114 568.5"/><polygon class="cls-15" points="9142.5 568 9203.73 355.98 9239.37 422.69 9313.4 267.33 9357.26 352.32 9455.05 132.08 9527.24 280.13 9584.82 89.13 9701.79 387.97 9779.47 142.13 9880 568 9142.5 568"/><polygon class="cls-16" points="9920.5 569 9850.64 661.98 9809.97 632.72 9725.51 700.85 9675.46 663.58 9563.89 760.16 9481.52 695.24 9415.83 779 9282.36 647.95 9193.73 755.76 9079.03 569 9920.5 569"/><ellipse class="cls-17" cx="10498" cy="689" rx="486" ry="239.5"/><polygon class="cls-2" points="10921 569 10851.14 705.37 10810.47 662.46 10726 762.38 10675.95 707.72 10564.38 849.37 10482 754.15 10416.31 877 10282.84 684.79 10194.2 842.91 10079.5 569 10921 569"/><polygon class="cls-18" points="10079 569 10146 337 10185 410 10266 240 10314 333 10421 92 10500 254 10563 45 10691 372 10776 103 10886 569 10079 569"/><polygon class="cls-19" points="10114 568.5 10181 336.5 10220 409.5 10301 239.5 10349 332.5 10456 91.5 10535 253.5 10598 44.5 10726 371.5 10811 102.5 10921 568.5 10114 568.5"/><polygon class="cls-20" points="10142.5 568 10203.73 355.98 10239.37 422.69 10313.4 267.33 10357.26 352.32 10455.05 132.08 10527.24 280.13 10584.82 89.13 10701.79 387.97 10779.47 142.13 10880 568 10142.5 568"/><polygon class="cls-21" points="10920.5 569 10850.64 661.98 10809.97 632.72 10725.51 700.85 10675.46 663.58 10563.89 760.16 10481.52 695.24 10415.83 779 10282.36 647.95 10193.73 755.76 10079.03 569 10920.5 569"/><ellipse class="cls-22" cx="11498" cy="689" rx="486" ry="239.5"/><polygon class="cls-2" points="11921 569 11851.14 705.37 11810.47 662.46 11726 762.38 11675.95 707.72 11564.38 849.37 11482 754.15 11416.31 877 11282.84 684.79 11194.2 842.91 11079.5 569 11921 569"/><polygon class="cls-23" points="11079 569 11146 337 11185 410 11266 240 11314 333 11421 92 11500 254 11563 45 11691 372 11776 103 11886 569 11079 569"/><polygon class="cls-24" points="11114 568.5 11181 336.5 11220 409.5 11301 239.5 11349 332.5 11456 91.5 11535 253.5 11598 44.5 11726 371.5 11811 102.5 11921 568.5 11114 568.5"/><polygon class="cls-25" points="11142.5 568 11203.73 355.98 11239.37 422.69 11313.4 267.33 11357.26 352.32 11455.05 132.08 11527.24 280.13 11584.82 89.13 11701.79 387.97 11779.47 142.13 11880 568 11142.5 568"/><polygon class="cls-26" points="11920.5 569 11850.64 661.98 11809.97 632.72 11725.51 700.85 11675.46 663.58 11563.89 760.16 11481.52 695.24 11415.83 779 11282.36 647.95 11193.73 755.76 11079.03 569 11920.5 569"/><ellipse class="cls-27" cx="12498" cy="689" rx="486" ry="239.5"/><polygon class="cls-2" points="12921 569 12851.14 705.37 12810.47 662.46 12726 762.38 12675.95 707.72 12564.38 849.37 12482 754.15 12416.31 877 12282.84 684.79 12194.2 842.91 12079.5 569 12921 569"/><polygon class="cls-28" points="12079 569 12146 337 12185 410 12266 240 12314 333 12421 92 12500 254 12563 45 12691 372 12776 103 12886 569 12079 569"/><polygon class="cls-29" points="12114 568.5 12181 336.5 12220 409.5 12301 239.5 12349 332.5 12456 91.5 12535 253.5 12598 44.5 12726 371.5 12811 102.5 12921 568.5 12114 568.5"/><polygon class="cls-30" points="12142.5 568 12203.73 355.98 12239.37 422.69 12313.4 267.33 12357.26 352.32 12455.05 132.08 12527.24 280.13 12584.82 89.13 12701.79 387.97 12779.47 142.13 12880 568 12142.5 568"/><polygon class="cls-31" points="12920.5 569 12850.64 661.98 12809.97 632.72 12725.51 700.85 12675.46 663.58 12563.89 760.16 12481.52 695.24 12415.83 779 12282.36 647.95 12193.73 755.76 12079.03 569 12920.5 569"/><ellipse class="cls-32" cx="13498" cy="689" rx="486" ry="239.5"/><polygon class="cls-2" points="13921 569 13851.14 705.37 13810.47 662.46 13726 762.38 13675.95 707.72 13564.38 849.37 13482 754.15 13416.31 877 13282.84 684.79 13194.2 842.91 13079.5 569 13921 569"/><polygon class="cls-33" points="13079 569 13146 337 13185 410 13266 240 13314 333 13421 92 13500 254 13563 45 13691 372 13776 103 13886 569 13079 569"/><polygon class="cls-34" points="13114 568.5 13181 336.5 13220 409.5 13301 239.5 13349 332.5 13456 91.5 13535 253.5 13598 44.5 13726 371.5 13811 102.5 13921 568.5 13114 568.5"/><polygon class="cls-35" points="13142.5 568 13203.73 355.98 13239.37 422.69 13313.4 267.33 13357.26 352.32 13455.05 132.08 13527.24 280.13 13584.82 89.13 13701.79 387.97 13779.47 142.13 13880 568 13142.5 568"/><polygon class="cls-36" points="13920.5 569 13850.64 661.98 13809.97 632.72 13725.51 700.85 13675.46 663.58 13563.89 760.16 13481.52 695.24 13415.83 779 13282.36 647.95 13193.73 755.76 13079.03 569 13920.5 569"/><ellipse cx="14498" cy="689" rx="486" ry="239.5"/><polygon class="cls-2" points="14921 569 14851.14 705.37 14810.47 662.46 14726 762.38 14675.95 707.72 14564.38 849.37 14482 754.15 14416.31 877 14282.84 684.79 14194.2 842.91 14079.5 569 14921 569"/><polygon class="cls-37" points="14079 569 14146 337 14185 410 14266 240 14314 333 14421 92 14500 254 14563 45 14691 372 14776 103 14886 569 14079 569"/><polygon class="cls-38" points="14114 568.5 14181 336.5 14220 409.5 14301 239.5 14349 332.5 14456 91.5 14535 253.5 14598 44.5 14726 371.5 14811 102.5 14921 568.5 14114 568.5"/><polygon class="cls-39" points="14142.5 568 14203.73 355.98 14239.37 422.69 14313.4 267.33 14357.26 352.32 14455.05 132.08 14527.24 280.13 14584.82 89.13 14701.79 387.97 14779.47 142.13 14880 568 14142.5 568"/><polygon class="cls-40" points="14920.5 569 14850.64 661.98 14809.97 632.72 14725.51 700.85 14675.46 663.58 14563.89 760.16 14481.52 695.24 14415.83 779 14282.36 647.95 14193.73 755.76 14079.03 569 14920.5 569"/><ellipse class="cls-41" cx="6498" cy="703" rx="486" ry="239.5"/><polygon class="cls-2" points="6921 583 6851.14 719.37 6810.47 676.46 6726.01 776.38 6675.95 721.72 6564.38 863.37 6482 768.15 6416.31 891 6282.84 698.79 6194.2 856.91 6079.5 583 6921 583"/><polygon class="cls-42" points="6079 583 6146 351 6185 424 6266 254 6314 347 6421 106 6500 268 6563 59 6691 386 6776 117 6886 583 6079 583"/><polygon class="cls-43" points="6114 582.5 6181 350.5 6220 423.5 6301 253.5 6349 346.5 6456 105.5 6535 267.5 6598 58.5 6726 385.5 6811 116.5 6921 582.5 6114 582.5"/><polygon class="cls-44" points="6142.5 582 6203.73 369.98 6239.37 436.69 6313.4 281.33 6357.26 366.32 6455.05 146.08 6527.24 294.13 6584.82 103.13 6701.79 401.97 6779.47 156.13 6880 582 6142.5 582"/><polygon class="cls-45" points="6920.5 583 6850.64 675.98 6809.97 646.72 6725.51 714.85 6675.46 677.58 6563.89 774.16 6481.52 709.24 6415.83 793 6282.36 661.95 6193.73 769.76 6079.03 583 6920.5 583"/><ellipse class="cls-46" cx="5501" cy="703" rx="486" ry="239.5"/><polygon class="cls-2" points="5924 583 5854.14 719.37 5813.47 676.46 5729.01 776.38 5678.95 721.72 5567.38 863.37 5485 768.15 5419.31 891 5285.84 698.79 5197.2 856.91 5082.5 583 5924 583"/><polygon class="cls-47" points="5082 583 5149 351 5188 424 5269 254 5317 347 5424 106 5503 268 5566 59 5694 386 5779 117 5889 583 5082 583"/><polygon class="cls-48" points="5117 582.5 5184 350.5 5223 423.5 5304 253.5 5352 346.5 5459 105.5 5538 267.5 5601 58.5 5729 385.5 5814 116.5 5924 582.5 5117 582.5"/><polygon class="cls-49" points="5145.5 582 5206.73 369.98 5242.37 436.69 5316.4 281.33 5360.26 366.32 5458.05 146.08 5530.24 294.13 5587.82 103.13 5704.79 401.97 5782.47 156.13 5883 582 5145.5 582"/><polygon class="cls-50" points="5923.5 583 5853.64 675.98 5812.97 646.72 5728.51 714.85 5678.46 677.58 5566.89 774.16 5484.52 709.24 5418.83 793 5285.36 661.95 5196.73 769.76 5082.03 583 5923.5 583"/><ellipse class="cls-51" cx="4499" cy="703" rx="486" ry="239.5"/><polygon class="cls-2" points="4922 583 4852.14 719.37 4811.47 676.46 4727.01 776.38 4676.95 721.72 4565.38 863.37 4483 768.15 4417.31 891 4283.84 698.79 4195.2 856.91 4080.5 583 4922 583"/><polygon class="cls-52" points="4080 583 4147 351 4186 424 4267 254 4315 347 4422 106 4501 268 4564 59 4692 386 4777 117 4887 583 4080 583"/><polygon class="cls-53" points="4115 582.5 4182 350.5 4221 423.5 4302 253.5 4350 346.5 4457 105.5 4536 267.5 4599 58.5 4727 385.5 4812 116.5 4922 582.5 4115 582.5"/><polygon class="cls-54" points="4143.5 582 4204.73 369.98 4240.37 436.69 4314.4 281.33 4358.26 366.32 4456.05 146.08 4528.24 294.13 4585.82 103.13 4702.79 401.97 4780.47 156.13 4881 582 4143.5 582"/><polygon class="cls-55" points="4921.5 583 4851.64 675.98 4810.97 646.72 4726.51 714.85 4676.46 677.58 4564.89 774.16 4482.52 709.24 4416.83 793 4283.36 661.95 4194.73 769.76 4080.03 583 4921.5 583"/><ellipse class="cls-56" cx="3501" cy="703" rx="486" ry="239.5"/><polygon class="cls-2" points="3924 583 3854.14 719.37 3813.47 676.46 3729.01 776.38 3678.95 721.72 3567.38 863.37 3485 768.15 3419.31 891 3285.84 698.79 3197.2 856.91 3082.5 583 3924 583"/><polygon class="cls-57" points="3082 583 3149 351 3188 424 3269 254 3317 347 3424 106 3503 268 3566 59 3694 386 3779 117 3889 583 3082 583"/><polygon class="cls-58" points="3117 582.5 3184 350.5 3223 423.5 3304 253.5 3352 346.5 3459 105.5 3538 267.5 3601 58.5 3729 385.5 3814 116.5 3924 582.5 3117 582.5"/><polygon class="cls-59" points="3145.5 582 3206.73 369.98 3242.37 436.69 3316.39 281.33 3360.26 366.32 3458.05 146.08 3530.24 294.13 3587.82 103.13 3704.79 401.97 3782.47 156.13 3883 582 3145.5 582"/><polygon class="cls-60" points="3923.5 583 3853.64 675.98 3812.97 646.72 3728.51 714.85 3678.46 677.58 3566.89 774.16 3484.52 709.24 3418.83 793 3285.36 661.95 3196.73 769.76 3082.03 583 3923.5 583"/><ellipse class="cls-61" cx="2499" cy="703" rx="486" ry="239.5"/><polygon class="cls-2" points="2922 583 2852.14 719.37 2811.47 676.46 2727.01 776.38 2676.95 721.72 2565.38 863.37 2483 768.15 2417.31 891 2283.84 698.79 2195.2 856.91 2080.5 583 2922 583"/><polygon class="cls-62" points="2080 583 2147 351 2186 424 2267 254 2315 347 2422 106 2501 268 2564 59 2692 386 2777 117 2887 583 2080 583"/><polygon class="cls-63" points="2115 582.5 2182 350.5 2221 423.5 2302 253.5 2350 346.5 2457 105.5 2536 267.5 2599 58.5 2727 385.5 2812 116.5 2922 582.5 2115 582.5"/><polygon class="cls-64" points="2143.5 582 2204.73 369.98 2240.37 436.69 2314.39 281.33 2358.26 366.32 2456.05 146.08 2528.24 294.13 2585.82 103.13 2702.79 401.97 2780.47 156.13 2881 582 2143.5 582"/><polygon class="cls-65" points="2921.5 583 2851.64 675.98 2810.97 646.72 2726.51 714.85 2676.46 677.58 2564.89 774.16 2482.52 709.24 2416.83 793 2283.36 661.95 2194.73 769.76 2080.03 583 2921.5 583"/><ellipse class="cls-66" cx="1502" cy="703" rx="486" ry="239.5"/><polygon class="cls-2" points="1925 583 1855.14 719.37 1814.47 676.46 1730.01 776.38 1679.95 721.72 1568.38 863.37 1486 768.15 1420.31 891 1286.84 698.79 1198.2 856.91 1083.5 583 1925 583"/><polygon class="cls-67" points="1083 583 1150 351 1189 424 1270 254 1318 347 1425 106 1504 268 1567 59 1695 386 1780 117 1890 583 1083 583"/><polygon class="cls-68" points="1118 582.5 1185 350.5 1224 423.5 1305 253.5 1353 346.5 1460 105.5 1539 267.5 1602 58.5 1730 385.5 1815 116.5 1925 582.5 1118 582.5"/><polygon class="cls-69" points="1146.5 582 1207.73 369.98 1243.37 436.69 1317.39 281.33 1361.26 366.32 1459.05 146.08 1531.24 294.13 1588.82 103.13 1705.79 401.97 1783.47 156.13 1884 582 1146.5 582"/><polygon class="cls-70" points="1924.5 583 1854.64 675.98 1813.97 646.72 1729.51 714.85 1679.46 677.58 1567.89 774.16 1485.52 709.24 1419.83 793 1286.36 661.95 1197.73 769.76 1083.03 583 1924.5 583"/><ellipse cx="500" cy="702" rx="486" ry="239.5"/><polygon class="cls-2" points="923 582 853.14 718.37 812.47 675.46 728 775.38 677.95 720.72 566.38 862.37 484 767.15 418.31 890 284.84 697.79 196.2 855.91 81.5 582 923 582"/><polygon class="cls-71" points="81 582 148 350 187 423 268 253 316 346 423 105 502 267 565 58 693 385 778 116 888 582 81 582"/><polygon class="cls-72" points="116 581.5 183 349.5 222 422.5 303 252.5 351 345.5 458 104.5 537 266.5 600 57.5 728 384.5 813 115.5 923 581.5 116 581.5"/><polygon class="cls-73" points="144.5 581 205.73 368.98 241.37 435.69 315.39 280.33 359.26 365.32 457.05 145.08 529.24 293.13 586.82 102.13 703.79 400.97 781.47 155.13 882 581 144.5 581"/><polygon class="cls-40" points="922.5 582 852.64 674.98 811.97 645.72 727.51 713.85 677.46 676.58 565.89 773.16 483.52 708.24 417.83 792 284.36 660.95 195.73 768.76 81.03 582 922.5 582"/></svg>
