<svg id="Layer_1" data-name="Layer 1" xmlns="http://www.w3.org/2000/svg" xmlns:xlink="http://www.w3.org/1999/xlink" width="15000" height="1000" viewBox="0 0 15000 1000"><defs><style>.cls-1{fill:url(#linear-gradient);}.cls-2{fill:#1a1a1a;}.cls-10,.cls-11,.cls-13,.cls-14,.cls-15,.cls-16,.cls-18,.cls-19,.cls-2,.cls-20,.cls-21,.cls-23,.cls-24,.cls-25,.cls-26,.cls-28,.cls-29,.cls-3,.cls-30,.cls-31,.cls-33,.cls-34,.cls-35,.cls-36,.cls-37,.cls-38,.cls-39,.cls-4,.cls-40,.cls-41,.cls-42,.cls-43,.cls-44,.cls-45,.cls-46,.cls-47,.cls-48,.cls-49,.cls-5,.cls-50,.cls-51,.cls-52,.cls-53,.cls-54,.cls-55,.cls-56,.cls-57,.cls-58,.cls-59,.cls-6,.cls-60,.cls-61,.cls-62,.cls-63,.cls-64,.cls-65,.cls-66,.cls-67,.cls-68,.cls-8,.cls-9{fill-rule:evenodd;}.cls-3{fill:url(#linear-gradient-2);}.cls-4{fill:url(#linear-gradient-3);}.cls-5{fill:url(#linear-gradient-4);}.cls-6{fill:url(#linear-gradient-5);}.cls-7{fill:url(#linear-gradient-6);}.cls-8{fill:url(#linear-gradient-7);}.cls-9{fill:url(#linear-gradient-8);}.cls-10{fill:url(#linear-gradient-9);}.cls-11{fill:url(#linear-gradient-10);}.cls-12{fill:url(#linear-gradient-11);}.cls-13{fill:url(#linear-gradient-12);}.cls-14{fill:url(#linear-gradient-13);}.cls-15{fill:url(#linear-gradient-14);}.cls-16{fill:url(#linear-gradient-15);}.cls-17{fill:url(#linear-gradient-16);}.cls-18{fill:url(#linear-gradient-17);}.cls-19{fill:url(#linear-gradient-18);}.cls-20{fill:url(#linear-gradient-19);}.cls-21{fill:url(#linear-gradient-20);}.cls-22{fill:url(#linear-gradient-21);}.cls-23{fill:url(#linear-gradient-22);}.cls-24{fill:url(#linear-gradient-23);}.cls-25{fill:url(#linear-gradient-24);}.cls-26{fill:url(#linear-gradient-25);}.cls-27{fill:url(#linear-gradient-26);}.cls-28{fill:url(#linear-gradient-27);}.cls-29{fill:url(#linear-gradient-28);}.cls-30{fill:url(#linear-gradient-29);}.cls-31{fill:url(#linear-gradient-30);}.cls-32{fill:url(#linear-gradient-31);}.cls-33{fill:url(#linear-gradient-32);}.cls-34{fill:url(#linear-gradient-33);}.cls-35{fill:url(#linear-gradient-34);}.cls-36{fill:url(#linear-gradient-35);}.cls-37{fill:url(#linear-gradient-36);}.cls-38{fill:url(#linear-gradient-37);}.cls-39{fill:url(#linear-gradient-38);}.cls-41{fill:url(#linear-gradient-39);}.cls-42{fill:url(#linear-gradient-40);}.cls-43{fill:url(#linear-gradient-41);}.cls-44{fill:url(#linear-gradient-42);}.cls-45{fill:url(#linear-gradient-43);}.cls-46{fill:url(#linear-gradient-44);}.cls-47{fill:url(#linear-gradient-45);}.cls-48{fill:url(#linear-gradient-46);}.cls-49{fill:url(#linear-gradient-47);}.cls-50{fill:url(#linear-gradient-48);}.cls-51{fill:url(#linear-gradient-49);}.cls-52{fill:url(#linear-gradient-50);}.cls-53{fill:url(#linear-gradient-51);}.cls-54{fill:url(#linear-gradient-52);}.cls-55{fill:url(#linear-gradient-53);}.cls-56{fill:url(#linear-gradient-54);}.cls-57{fill:url(#linear-gradient-55);}.cls-58{fill:url(#linear-gradient-56);}.cls-59{fill:url(#linear-gradient-57);}.cls-60{fill:url(#linear-gradient-58);}.cls-61{fill:url(#linear-gradient-59);}.cls-62{fill:url(#linear-gradient-60);}.cls-63{fill:url(#linear-gradient-61);}.cls-64{fill:url(#linear-gradient-62);}.cls-65{fill:url(#linear-gradient-63);}.cls-66{fill:url(#linear-gradient-64);}.cls-67{fill:url(#linear-gradient-65);}.cls-68{fill:url(#linear-gradient-66);}</style><linearGradient id="linear-gradient" x1="12" y1="694.53" x2="984" y2="694.53" gradientUnits="userSpaceOnUse"><stop offset="0" stop-color="#e6e6e6"/><stop offset="0.04" stop-color="#ddd"/><stop offset="0.09" stop-color="#c3c3c3"/><stop offset="0.13" stop-color="#b2b2b2"/><stop offset="0.42" stop-color="#7c7c7c"/><stop offset="0.58" stop-color="#666"/><stop offset="0.92" stop-color="#333"/></linearGradient><linearGradient id="linear-gradient-2" x1="482.03" y1="506.14" x2="480.1" y2="222.44" gradientUnits="userSpaceOnUse"><stop offset="0.15" stop-color="#06a475"/><stop offset="0.3" stop-color="#0bad7d"/><stop offset="0.55" stop-color="#18c590"/><stop offset="0.88" stop-color="#51e2be"/><stop offset="1" stop-color="#76edd0"/></linearGradient><linearGradient id="linear-gradient-3" x1="517.03" y1="505.64" x2="515.1" y2="221.94" gradientUnits="userSpaceOnUse"><stop offset="0.14" stop-color="#069871"/><stop offset="0.2" stop-color="#0ea179"/><stop offset="0.3" stop-color="#25bb8f"/><stop offset="0.34" stop-color="#30c799"/><stop offset="0.88" stop-color="#34dcaf"/><stop offset="1" stop-color="#fff"/></linearGradient><linearGradient id="linear-gradient-4" x1="510.82" y1="511.03" x2="509.06" y2="251.76" gradientUnits="userSpaceOnUse"><stop offset="0.02" stop-color="#088a6f"/><stop offset="0.05" stop-color="#0b9375"/><stop offset="0.09" stop-color="#15ad86"/><stop offset="0.13" stop-color="#20cc9a"/><stop offset="0.64" stop-color="#4ce2bc"/><stop offset="1" stop-color="#e6e6e6"/></linearGradient><linearGradient id="linear-gradient-5" x1="79.03" y1="679.53" x2="920.5" y2="679.53" gradientUnits="userSpaceOnUse"><stop offset="0.13" stop-color="#e6e6e6"/><stop offset="0.32" stop-color="#ccc"/><stop offset="0.62" stop-color="gray"/><stop offset="0.76" stop-color="#777"/><stop offset="0.91" stop-color="#666"/></linearGradient><linearGradient id="linear-gradient-6" x1="1012" y1="694.53" x2="1984" y2="694.53" gradientUnits="userSpaceOnUse"><stop offset="0" stop-color="#e6e6e6"/><stop offset="0.04" stop-color="#ddd"/><stop offset="0.09" stop-color="#c3c3c3"/><stop offset="0.13" stop-color="#b2b2b2"/><stop offset="0.35" stop-color="#7c7c7c"/><stop offset="0.45" stop-color="#666"/><stop offset="0.73" stop-color="#333"/></linearGradient><linearGradient id="linear-gradient-7" x1="1482.03" y1="506.14" x2="1480.1" y2="222.44" xlink:href="#linear-gradient-2"/><linearGradient id="linear-gradient-8" x1="1517.03" y1="505.64" x2="1515.1" y2="221.94" xlink:href="#linear-gradient-3"/><linearGradient id="linear-gradient-9" x1="1511" y1="536.11" x2="1509.23" y2="276.84" xlink:href="#linear-gradient-4"/><linearGradient id="linear-gradient-10" x1="1079.03" y1="679.53" x2="1920.5" y2="679.53" gradientUnits="userSpaceOnUse"><stop offset="0.13" stop-color="#e6e6e6"/><stop offset="0.32" stop-color="#ccc"/><stop offset="0.49" stop-color="gray"/><stop offset="0.69" stop-color="#777"/><stop offset="0.91" stop-color="#666"/></linearGradient><linearGradient id="linear-gradient-11" x1="2012" y1="694.53" x2="2984" y2="694.53" gradientUnits="userSpaceOnUse"><stop offset="0" stop-color="#e6e6e6"/><stop offset="0.04" stop-color="#ddd"/><stop offset="0.09" stop-color="#c3c3c3"/><stop offset="0.13" stop-color="#b2b2b2"/><stop offset="0.23" stop-color="#7c7c7c"/><stop offset="0.37" stop-color="#666"/><stop offset="0.61" stop-color="#333"/></linearGradient><linearGradient id="linear-gradient-12" x1="2482.03" y1="506.14" x2="2480.1" y2="222.44" xlink:href="#linear-gradient-2"/><linearGradient id="linear-gradient-13" x1="2517.03" y1="505.64" x2="2515.1" y2="221.94" xlink:href="#linear-gradient-3"/><linearGradient id="linear-gradient-14" x1="2511.18" y1="562.82" x2="2509.41" y2="303.55" xlink:href="#linear-gradient-4"/><linearGradient id="linear-gradient-15" x1="2079.03" y1="679.53" x2="2920.5" y2="679.53" gradientUnits="userSpaceOnUse"><stop offset="0.05" stop-color="#e6e6e6"/><stop offset="0.19" stop-color="#ccc"/><stop offset="0.36" stop-color="gray"/><stop offset="0.62" stop-color="#777"/><stop offset="0.91" stop-color="#666"/></linearGradient><linearGradient id="linear-gradient-16" x1="3012" y1="694.53" x2="3984" y2="694.53" gradientUnits="userSpaceOnUse"><stop offset="0" stop-color="#e6e6e6"/><stop offset="0.02" stop-color="#ddd"/><stop offset="0.05" stop-color="#c3c3c3"/><stop offset="0.07" stop-color="#b2b2b2"/><stop offset="0.16" stop-color="#7c7c7c"/><stop offset="0.22" stop-color="#666"/><stop offset="0.34" stop-color="#333"/></linearGradient><linearGradient id="linear-gradient-17" x1="3482.03" y1="506.14" x2="3480.1" y2="222.44" xlink:href="#linear-gradient-2"/><linearGradient id="linear-gradient-18" x1="3517.03" y1="505.64" x2="3515.1" y2="221.94" xlink:href="#linear-gradient-3"/><linearGradient id="linear-gradient-19" x1="3511.28" y1="577.3" x2="3509.51" y2="318.03" gradientUnits="userSpaceOnUse"><stop offset="0" stop-color="#088a6f"/><stop offset="0.03" stop-color="#0b9375"/><stop offset="0.09" stop-color="#15ad86"/><stop offset="0.14" stop-color="#20cc9a"/><stop offset="0.64" stop-color="#4ce2bc"/><stop offset="1" stop-color="#e6e6e6"/></linearGradient><linearGradient id="linear-gradient-20" x1="3079.03" y1="679.53" x2="3920.5" y2="679.53" gradientUnits="userSpaceOnUse"><stop offset="0" stop-color="#e6e6e6"/><stop offset="0.03" stop-color="#ccc"/><stop offset="0.16" stop-color="gray"/><stop offset="0.35" stop-color="#777"/><stop offset="0.58" stop-color="#666"/></linearGradient><linearGradient id="linear-gradient-21" x1="4012" y1="694.53" x2="4984" y2="694.53" gradientUnits="userSpaceOnUse"><stop offset="0" stop-color="#b2b2b2"/><stop offset="0.08" stop-color="#7c7c7c"/><stop offset="0.13" stop-color="#666"/><stop offset="0.19" stop-color="#333"/></linearGradient><linearGradient id="linear-gradient-22" x1="4482.03" y1="506.14" x2="4480.1" y2="222.44" xlink:href="#linear-gradient-2"/><linearGradient id="linear-gradient-23" x1="4517.03" y1="505.64" x2="4515.1" y2="221.94" xlink:href="#linear-gradient-3"/><linearGradient id="linear-gradient-24" x1="4511.98" y1="680.51" x2="4510.21" y2="421.24" xlink:href="#linear-gradient-19"/><linearGradient id="linear-gradient-25" x1="4079.03" y1="679.53" x2="4920.5" y2="679.53" gradientUnits="userSpaceOnUse"><stop offset="0" stop-color="#ccc"/><stop offset="0.06" stop-color="gray"/><stop offset="0.19" stop-color="#777"/><stop offset="0.33" stop-color="#666"/></linearGradient><linearGradient id="linear-gradient-26" x1="5012" y1="694.53" x2="5984" y2="694.53" gradientUnits="userSpaceOnUse"><stop offset="0" stop-color="#7c7c7c"/><stop offset="0.04" stop-color="#666"/><stop offset="0.06" stop-color="#333"/></linearGradient><linearGradient id="linear-gradient-27" x1="5482.03" y1="506.14" x2="5480.1" y2="222.44" xlink:href="#linear-gradient-2"/><linearGradient id="linear-gradient-28" x1="5517.03" y1="505.64" x2="5515.1" y2="221.94" xlink:href="#linear-gradient-3"/><linearGradient id="linear-gradient-29" x1="5512.47" y1="753.46" x2="5510.71" y2="494.19" gradientUnits="userSpaceOnUse"><stop offset="0.14" stop-color="#20cc9a"/><stop offset="0.64" stop-color="#4ce2bc"/><stop offset="1" stop-color="#e6e6e6"/></linearGradient><linearGradient id="linear-gradient-30" x1="5079.03" y1="679.53" x2="5920.5" y2="679.53" gradientUnits="userSpaceOnUse"><stop offset="0" stop-color="gray"/><stop offset="0.12" stop-color="#777"/><stop offset="0.26" stop-color="#666"/><stop offset="0.46" stop-color="#4d4d4d"/></linearGradient><linearGradient id="linear-gradient-31" x1="6012" y1="694.53" x2="6984" y2="694.53" gradientUnits="userSpaceOnUse"><stop offset="0.06" stop-color="#333"/><stop offset="0.82" stop-color="#1a1a1a"/></linearGradient><linearGradient id="linear-gradient-32" x1="6482.03" y1="506.14" x2="6480.1" y2="222.44" xlink:href="#linear-gradient-2"/><linearGradient id="linear-gradient-33" x1="6517.03" y1="505.64" x2="6515.1" y2="221.94" xlink:href="#linear-gradient-3"/><linearGradient id="linear-gradient-34" x1="6512.86" y1="809.78" x2="6511.09" y2="550.51" xlink:href="#linear-gradient-29"/><linearGradient id="linear-gradient-35" x1="6079.03" y1="679.53" x2="6920.5" y2="679.53" gradientUnits="userSpaceOnUse"><stop offset="0" stop-color="gray"/><stop offset="0.02" stop-color="#777"/><stop offset="0.03" stop-color="#666"/><stop offset="0.11" stop-color="#4d4d4d"/></linearGradient><linearGradient id="linear-gradient-36" x1="7482.03" y1="506.14" x2="7480.1" y2="222.44" xlink:href="#linear-gradient-2"/><linearGradient id="linear-gradient-37" x1="7517.03" y1="505.64" x2="7515.1" y2="221.94" xlink:href="#linear-gradient-3"/><linearGradient id="linear-gradient-38" x1="7512.86" y1="809.78" x2="7511.09" y2="550.51" xlink:href="#linear-gradient-29"/><linearGradient id="linear-gradient-39" x1="8079.5" y1="728.53" x2="8921" y2="728.53" gradientUnits="userSpaceOnUse"><stop offset="0.92"/><stop offset="1" stop-color="#fff"/></linearGradient><linearGradient id="linear-gradient-40" x1="8482.03" y1="506.14" x2="8480.1" y2="222.44" xlink:href="#linear-gradient-2"/><linearGradient id="linear-gradient-41" x1="8517.03" y1="505.64" x2="8515.1" y2="221.94" xlink:href="#linear-gradient-3"/><linearGradient id="linear-gradient-42" x1="8512.86" y1="809.78" x2="8511.09" y2="550.51" xlink:href="#linear-gradient-29"/><linearGradient id="linear-gradient-43" x1="9080.5" y1="728.53" x2="9922" y2="728.53" gradientUnits="userSpaceOnUse"><stop offset="0.75"/><stop offset="1" stop-color="#fff"/></linearGradient><linearGradient id="linear-gradient-44" x1="9483.03" y1="506.14" x2="9481.1" y2="222.44" xlink:href="#linear-gradient-2"/><linearGradient id="linear-gradient-45" x1="9518.03" y1="505.64" x2="9516.1" y2="221.94" xlink:href="#linear-gradient-3"/><linearGradient id="linear-gradient-46" x1="9513.86" y1="809.78" x2="9512.09" y2="550.51" xlink:href="#linear-gradient-29"/><linearGradient id="linear-gradient-47" x1="10080.5" y1="728.53" x2="10922" y2="728.53" gradientUnits="userSpaceOnUse"><stop offset="0.52"/><stop offset="0.77" stop-color="#fff"/></linearGradient><linearGradient id="linear-gradient-48" x1="10483.03" y1="506.14" x2="10481.1" y2="222.44" xlink:href="#linear-gradient-2"/><linearGradient id="linear-gradient-49" x1="10518.03" y1="505.64" x2="10516.1" y2="221.94" xlink:href="#linear-gradient-3"/><linearGradient id="linear-gradient-50" x1="10513.86" y1="809.78" x2="10512.09" y2="550.51" xlink:href="#linear-gradient-29"/><linearGradient id="linear-gradient-51" x1="11079.5" y1="728.53" x2="11921" y2="728.53" gradientUnits="userSpaceOnUse"><stop offset="0.27"/><stop offset="0.63" stop-color="#fff"/></linearGradient><linearGradient id="linear-gradient-52" x1="11482.03" y1="506.14" x2="11480.1" y2="222.44" xlink:href="#linear-gradient-2"/><linearGradient id="linear-gradient-53" x1="11517.03" y1="505.64" x2="11515.1" y2="221.94" xlink:href="#linear-gradient-3"/><linearGradient id="linear-gradient-54" x1="11512.86" y1="809.78" x2="11511.09" y2="550.51" xlink:href="#linear-gradient-29"/><linearGradient id="linear-gradient-55" x1="12079.5" y1="728.53" x2="12921" y2="728.53" gradientUnits="userSpaceOnUse"><stop offset="0.16"/><stop offset="0.31" stop-color="#fff"/></linearGradient><linearGradient id="linear-gradient-56" x1="12482.03" y1="506.14" x2="12480.1" y2="222.44" xlink:href="#linear-gradient-2"/><linearGradient id="linear-gradient-57" x1="12517.03" y1="505.64" x2="12515.1" y2="221.94" xlink:href="#linear-gradient-3"/><linearGradient id="linear-gradient-58" x1="12512.86" y1="809.78" x2="12511.09" y2="550.51" xlink:href="#linear-gradient-29"/><linearGradient id="linear-gradient-59" x1="13079.5" y1="728.53" x2="13921" y2="728.53" gradientUnits="userSpaceOnUse"><stop offset="0.05"/><stop offset="0.17" stop-color="#fff"/></linearGradient><linearGradient id="linear-gradient-60" x1="13482.03" y1="506.14" x2="13480.1" y2="222.44" xlink:href="#linear-gradient-2"/><linearGradient id="linear-gradient-61" x1="13517.03" y1="505.64" x2="13515.1" y2="221.94" xlink:href="#linear-gradient-3"/><linearGradient id="linear-gradient-62" x1="13512.86" y1="809.78" x2="13511.09" y2="550.51" xlink:href="#linear-gradient-29"/><linearGradient id="linear-gradient-63" x1="14079.5" y1="728.53" x2="14921" y2="728.53" gradientUnits="userSpaceOnUse"><stop offset="0"/><stop offset="0" stop-color="#fff"/></linearGradient><linearGradient id="linear-gradient-64" x1="14482.03" y1="506.14" x2="14480.1" y2="222.44" xlink:href="#linear-gradient-2"/><linearGradient id="linear-gradient-65" x1="14517.03" y1="505.64" x2="14515.1" y2="221.94" xlink:href="#linear-gradient-3"/><linearGradient id="linear-gradient-66" x1="14512.86" y1="809.78" x2="14511.09" y2="550.51" xlink:href="#linear-gradient-29"/></defs><title>Artboard 6</title><ellipse class="cls-1" cx="498" cy="694.53" rx="486" ry="239.5"/><polygon class="cls-2" points="921 574.53 851.14 710.9 810.47 667.99 726 767.91 675.95 713.25 564.38 854.91 482 759.69 416.31 882.53 282.84 690.33 194.2 848.44 79.5 574.53 921 574.53"/><polygon class="cls-3" points="79 574.53 146 342.53 185 415.53 266 245.53 314 338.53 421 97.53 500 259.53 563 50.53 691 377.53 776 108.53 886 574.53 79 574.53"/><polygon class="cls-4" points="114 574.03 181 342.03 220 415.03 301 245.03 349 338.03 456 97.03 535 259.03 598 50.03 726 377.03 811 108.03 921 574.03 114 574.03"/><polygon class="cls-5" points="142.5 573.53 203.73 361.51 239.37 428.23 313.39 272.87 357.26 357.86 455.05 137.61 527.24 285.66 584.82 94.66 701.79 393.5 779.47 147.67 880 573.53 142.5 573.53"/><polygon class="cls-6" points="920.5 574.53 850.64 667.51 809.97 638.25 725.51 706.38 675.46 669.11 563.89 765.7 481.52 700.77 415.83 784.53 282.36 653.48 193.73 761.29 79.03 574.53 920.5 574.53"/><ellipse class="cls-7" cx="1498" cy="694.53" rx="486" ry="239.5"/><polygon class="cls-2" points="1921 574.53 1851.14 710.9 1810.47 667.99 1726.01 767.91 1675.95 713.25 1564.38 854.91 1482 759.69 1416.31 882.53 1282.84 690.33 1194.2 848.44 1079.5 574.53 1921 574.53"/><polygon class="cls-8" points="1079 574.53 1146 342.53 1185 415.53 1266 245.53 1314 338.53 1421 97.53 1500 259.53 1563 50.53 1691 377.53 1776 108.53 1886 574.53 1079 574.53"/><polygon class="cls-9" points="1114 574.03 1181 342.03 1220 415.03 1301 245.03 1349 338.03 1456 97.03 1535 259.03 1598 50.03 1726 377.03 1811 108.03 1921 574.03 1114 574.03"/><polygon class="cls-10" points="1142.5 573.53 1203.73 361.51 1239.37 428.23 1313.39 272.87 1357.26 357.86 1455.05 137.61 1527.24 285.66 1584.82 94.66 1701.79 393.5 1779.47 147.67 1880 573.53 1142.5 573.53"/><polygon class="cls-11" points="1920.5 574.53 1850.64 667.51 1809.97 638.25 1725.51 706.38 1675.46 669.11 1563.89 765.7 1481.52 700.77 1415.83 784.53 1282.36 653.48 1193.73 761.29 1079.03 574.53 1920.5 574.53"/><ellipse class="cls-12" cx="2498" cy="694.53" rx="486" ry="239.5"/><polygon class="cls-2" points="2921 574.53 2851.14 710.9 2810.47 667.99 2726.01 767.91 2675.95 713.25 2564.38 854.91 2482 759.69 2416.31 882.53 2282.84 690.33 2194.2 848.44 2079.5 574.53 2921 574.53"/><polygon class="cls-13" points="2079 574.53 2146 342.53 2185 415.53 2266 245.53 2314 338.53 2421 97.53 2500 259.53 2563 50.53 2691 377.53 2776 108.53 2886 574.53 2079 574.53"/><polygon class="cls-14" points="2114 574.03 2181 342.03 2220 415.03 2301 245.03 2349 338.03 2456 97.03 2535 259.03 2598 50.03 2726 377.03 2811 108.03 2921 574.03 2114 574.03"/><polygon class="cls-15" points="2142.5 573.53 2203.73 361.51 2239.37 428.23 2313.39 272.87 2357.26 357.86 2455.05 137.61 2527.24 285.66 2584.82 94.66 2701.79 393.5 2779.47 147.67 2880 573.53 2142.5 573.53"/><polygon class="cls-16" points="2920.5 574.53 2850.64 667.51 2809.97 638.25 2725.51 706.38 2675.46 669.11 2563.89 765.7 2481.52 700.77 2415.83 784.53 2282.36 653.48 2193.73 761.29 2079.03 574.53 2920.5 574.53"/><ellipse class="cls-17" cx="3498" cy="694.53" rx="486" ry="239.5"/><polygon class="cls-2" points="3921 574.53 3851.14 710.9 3810.47 667.99 3726.01 767.91 3675.95 713.25 3564.38 854.91 3482 759.69 3416.31 882.53 3282.84 690.33 3194.2 848.44 3079.5 574.53 3921 574.53"/><polygon class="cls-18" points="3079 574.53 3146 342.53 3185 415.53 3266 245.53 3314 338.53 3421 97.53 3500 259.53 3563 50.53 3691 377.53 3776 108.53 3886 574.53 3079 574.53"/><polygon class="cls-19" points="3114 574.03 3181 342.03 3220 415.03 3301 245.03 3349 338.03 3456 97.03 3535 259.03 3598 50.03 3726 377.03 3811 108.03 3921 574.03 3114 574.03"/><polygon class="cls-20" points="3142.5 573.53 3203.73 361.51 3239.37 428.23 3313.39 272.87 3357.26 357.86 3455.05 137.61 3527.24 285.66 3584.82 94.66 3701.79 393.5 3779.47 147.67 3880 573.53 3142.5 573.53"/><polygon class="cls-21" points="3920.5 574.53 3850.64 667.51 3809.97 638.25 3725.51 706.38 3675.46 669.11 3563.89 765.7 3481.52 700.77 3415.83 784.53 3282.36 653.48 3193.73 761.29 3079.03 574.53 3920.5 574.53"/><ellipse class="cls-22" cx="4498" cy="694.53" rx="486" ry="239.5"/><polygon class="cls-2" points="4921 574.53 4851.14 710.9 4810.47 667.99 4726.01 767.91 4675.95 713.25 4564.38 854.91 4482 759.69 4416.31 882.53 4282.84 690.33 4194.2 848.44 4079.5 574.53 4921 574.53"/><polygon class="cls-23" points="4079 574.53 4146 342.53 4185 415.53 4266 245.53 4314 338.53 4421 97.53 4500 259.53 4563 50.53 4691 377.53 4776 108.53 4886 574.53 4079 574.53"/><polygon class="cls-24" points="4114 574.03 4181 342.03 4220 415.03 4301 245.03 4349 338.03 4456 97.03 4535 259.03 4598 50.03 4726 377.03 4811 108.03 4921 574.03 4114 574.03"/><polygon class="cls-25" points="4142.5 573.53 4203.73 361.51 4239.37 428.23 4313.4 272.87 4357.26 357.86 4455.05 137.61 4527.24 285.66 4584.82 94.66 4701.79 393.5 4779.47 147.67 4880 573.53 4142.5 573.53"/><polygon class="cls-26" points="4920.5 574.53 4850.64 667.51 4809.97 638.25 4725.51 706.38 4675.46 669.11 4563.89 765.7 4481.52 700.77 4415.83 784.53 4282.36 653.48 4193.73 761.29 4079.03 574.53 4920.5 574.53"/><ellipse class="cls-27" cx="5498" cy="694.53" rx="486" ry="239.5"/><polygon class="cls-2" points="5921 574.53 5851.14 710.9 5810.47 667.99 5726.01 767.91 5675.95 713.25 5564.38 854.91 5482 759.69 5416.31 882.53 5282.84 690.33 5194.2 848.44 5079.5 574.53 5921 574.53"/><polygon class="cls-28" points="5079 574.53 5146 342.53 5185 415.53 5266 245.53 5314 338.53 5421 97.53 5500 259.53 5563 50.53 5691 377.53 5776 108.53 5886 574.53 5079 574.53"/><polygon class="cls-29" points="5114 574.03 5181 342.03 5220 415.03 5301 245.03 5349 338.03 5456 97.03 5535 259.03 5598 50.03 5726 377.03 5811 108.03 5921 574.03 5114 574.03"/><polygon class="cls-30" points="5142.5 573.53 5203.73 361.51 5239.37 428.23 5313.4 272.87 5357.26 357.86 5455.05 137.61 5527.24 285.66 5584.82 94.66 5701.79 393.5 5779.47 147.67 5880 573.53 5142.5 573.53"/><polygon class="cls-31" points="5920.5 574.53 5850.64 667.51 5809.97 638.25 5725.51 706.38 5675.46 669.11 5563.89 765.7 5481.52 700.77 5415.83 784.53 5282.36 653.48 5193.73 761.29 5079.03 574.53 5920.5 574.53"/><ellipse class="cls-32" cx="6498" cy="694.53" rx="486" ry="239.5"/><polygon class="cls-2" points="6921 574.53 6851.14 710.9 6810.47 667.99 6726.01 767.91 6675.95 713.25 6564.38 854.91 6482 759.69 6416.31 882.53 6282.84 690.33 6194.2 848.44 6079.5 574.53 6921 574.53"/><polygon class="cls-33" points="6079 574.53 6146 342.53 6185 415.53 6266 245.53 6314 338.53 6421 97.53 6500 259.53 6563 50.53 6691 377.53 6776 108.53 6886 574.53 6079 574.53"/><polygon class="cls-34" points="6114 574.03 6181 342.03 6220 415.03 6301 245.03 6349 338.03 6456 97.03 6535 259.03 6598 50.03 6726 377.03 6811 108.03 6921 574.03 6114 574.03"/><polygon class="cls-35" points="6142.5 573.53 6203.73 361.51 6239.37 428.23 6313.4 272.87 6357.26 357.86 6455.05 137.61 6527.24 285.66 6584.82 94.66 6701.79 393.5 6779.47 147.67 6880 573.53 6142.5 573.53"/><polygon class="cls-36" points="6920.5 574.53 6850.64 667.51 6809.97 638.25 6725.51 706.38 6675.46 669.11 6563.89 765.7 6481.52 700.77 6415.83 784.53 6282.36 653.48 6193.73 761.29 6079.03 574.53 6920.5 574.53"/><ellipse cx="7498" cy="694.53" rx="486" ry="239.5"/><polygon class="cls-2" points="7921 574.53 7851.14 710.9 7810.47 667.99 7726.01 767.91 7675.95 713.25 7564.38 854.91 7482 759.69 7416.31 882.53 7282.84 690.33 7194.2 848.44 7079.5 574.53 7921 574.53"/><polygon class="cls-37" points="7079 574.53 7146 342.53 7185 415.53 7266 245.53 7314 338.53 7421 97.53 7500 259.53 7563 50.53 7691 377.53 7776 108.53 7886 574.53 7079 574.53"/><polygon class="cls-38" points="7114 574.03 7181 342.03 7220 415.03 7301 245.03 7349 338.03 7456 97.03 7535 259.03 7598 50.03 7726 377.03 7811 108.03 7921 574.03 7114 574.03"/><polygon class="cls-39" points="7142.5 573.53 7203.73 361.51 7239.37 428.23 7313.4 272.87 7357.26 357.86 7455.05 137.61 7527.24 285.66 7584.82 94.66 7701.79 393.5 7779.47 147.67 7880 573.53 7142.5 573.53"/><polygon class="cls-40" points="7920.5 574.53 7850.64 667.51 7809.97 638.25 7725.51 706.38 7675.46 669.11 7563.89 765.7 7481.52 700.77 7415.83 784.53 7282.36 653.48 7193.73 761.29 7079.03 574.53 7920.5 574.53"/><ellipse cx="8498" cy="694.53" rx="486" ry="239.5"/><polygon class="cls-41" points="8921 574.53 8851.14 710.9 8810.47 667.99 8726 767.91 8675.95 713.25 8564.38 854.91 8482 759.69 8416.31 882.53 8282.84 690.33 8194.2 848.44 8079.5 574.53 8921 574.53"/><polygon class="cls-42" points="8079 574.53 8146 342.53 8185 415.53 8266 245.53 8314 338.53 8421 97.53 8500 259.53 8563 50.53 8691 377.53 8776 108.53 8886 574.53 8079 574.53"/><polygon class="cls-43" points="8114 574.03 8181 342.03 8220 415.03 8301 245.03 8349 338.03 8456 97.03 8535 259.03 8598 50.03 8726 377.03 8811 108.03 8921 574.03 8114 574.03"/><polygon class="cls-44" points="8142.5 573.53 8203.73 361.51 8239.37 428.23 8313.4 272.87 8357.26 357.86 8455.05 137.61 8527.24 285.66 8584.82 94.66 8701.79 393.5 8779.47 147.67 8880 573.53 8142.5 573.53"/><polygon class="cls-40" points="8920.5 574.53 8850.64 667.51 8809.97 638.25 8725.51 706.38 8675.46 669.11 8563.89 765.7 8481.52 700.77 8415.83 784.53 8282.36 653.48 8193.73 761.29 8079.03 574.53 8920.5 574.53"/><ellipse cx="9499" cy="694.53" rx="486" ry="239.5"/><polygon class="cls-45" points="9922 574.53 9852.14 710.9 9811.47 667.99 9727 767.91 9676.95 713.25 9565.38 854.91 9483 759.69 9417.31 882.53 9283.84 690.33 9195.2 848.44 9080.5 574.53 9922 574.53"/><polygon class="cls-46" points="9080 574.53 9147 342.53 9186 415.53 9267 245.53 9315 338.53 9422 97.53 9501 259.53 9564 50.53 9692 377.53 9777 108.53 9887 574.53 9080 574.53"/><polygon class="cls-47" points="9115 574.03 9182 342.03 9221 415.03 9302 245.03 9350 338.03 9457 97.03 9536 259.03 9599 50.03 9727 377.03 9812 108.03 9922 574.03 9115 574.03"/><polygon class="cls-48" points="9143.5 573.53 9204.73 361.51 9240.37 428.23 9314.4 272.87 9358.26 357.86 9456.05 137.61 9528.24 285.66 9585.82 94.66 9702.79 393.5 9780.47 147.67 9881 573.53 9143.5 573.53"/><polygon class="cls-40" points="9921.5 574.53 9851.64 667.51 9810.97 638.25 9726.51 706.38 9676.46 669.11 9564.89 765.7 9482.52 700.77 9416.83 784.53 9283.36 653.48 9194.73 761.29 9080.03 574.53 9921.5 574.53"/><ellipse cx="10499" cy="694.53" rx="486" ry="239.5"/><polygon class="cls-49" points="10922 574.53 10852.14 710.9 10811.47 667.99 10727 767.91 10676.95 713.25 10565.38 854.91 10483 759.69 10417.31 882.53 10283.84 690.33 10195.2 848.44 10080.5 574.53 10922 574.53"/><polygon class="cls-50" points="10080 574.53 10147 342.53 10186 415.53 10267 245.53 10315 338.53 10422 97.53 10501 259.53 10564 50.53 10692 377.53 10777 108.53 10887 574.53 10080 574.53"/><polygon class="cls-51" points="10115 574.03 10182 342.03 10221 415.03 10302 245.03 10350 338.03 10457 97.03 10536 259.03 10599 50.03 10727 377.03 10812 108.03 10922 574.03 10115 574.03"/><polygon class="cls-52" points="10143.5 573.53 10204.73 361.51 10240.37 428.23 10314.4 272.87 10358.26 357.86 10456.05 137.61 10528.24 285.66 10585.82 94.66 10702.79 393.5 10780.47 147.67 10881 573.53 10143.5 573.53"/><polygon class="cls-40" points="10921.5 574.53 10851.64 667.51 10810.97 638.25 10726.51 706.38 10676.46 669.11 10564.89 765.7 10482.52 700.77 10416.83 784.53 10283.36 653.48 10194.73 761.29 10080.03 574.53 10921.5 574.53"/><ellipse cx="11498" cy="694.53" rx="486" ry="239.5"/><polygon class="cls-53" points="11921 574.53 11851.14 710.9 11810.47 667.99 11726 767.91 11675.95 713.25 11564.38 854.91 11482 759.69 11416.31 882.53 11282.84 690.33 11194.2 848.44 11079.5 574.53 11921 574.53"/><polygon class="cls-54" points="11079 574.53 11146 342.53 11185 415.53 11266 245.53 11314 338.53 11421 97.53 11500 259.53 11563 50.53 11691 377.53 11776 108.53 11886 574.53 11079 574.53"/><polygon class="cls-55" points="11114 574.03 11181 342.03 11220 415.03 11301 245.03 11349 338.03 11456 97.03 11535 259.03 11598 50.03 11726 377.03 11811 108.03 11921 574.03 11114 574.03"/><polygon class="cls-56" points="11142.5 573.53 11203.73 361.51 11239.37 428.23 11313.4 272.87 11357.26 357.86 11455.05 137.61 11527.24 285.66 11584.82 94.66 11701.79 393.5 11779.47 147.67 11880 573.53 11142.5 573.53"/><polygon class="cls-40" points="11920.5 574.53 11850.64 667.51 11809.97 638.25 11725.51 706.38 11675.46 669.11 11563.89 765.7 11481.52 700.77 11415.83 784.53 11282.36 653.48 11193.73 761.29 11079.03 574.53 11920.5 574.53"/><ellipse cx="12498" cy="694.53" rx="486" ry="239.5"/><polygon class="cls-57" points="12921 574.53 12851.14 710.9 12810.47 667.99 12726 767.91 12675.95 713.25 12564.38 854.91 12482 759.69 12416.31 882.53 12282.84 690.33 12194.2 848.44 12079.5 574.53 12921 574.53"/><polygon class="cls-58" points="12079 574.53 12146 342.53 12185 415.53 12266 245.53 12314 338.53 12421 97.53 12500 259.53 12563 50.53 12691 377.53 12776 108.53 12886 574.53 12079 574.53"/><polygon class="cls-59" points="12114 574.03 12181 342.03 12220 415.03 12301 245.03 12349 338.03 12456 97.03 12535 259.03 12598 50.03 12726 377.03 12811 108.03 12921 574.03 12114 574.03"/><polygon class="cls-60" points="12142.5 573.53 12203.73 361.51 12239.37 428.23 12313.4 272.87 12357.26 357.86 12455.05 137.61 12527.24 285.66 12584.82 94.66 12701.79 393.5 12779.47 147.67 12880 573.53 12142.5 573.53"/><polygon class="cls-40" points="12920.5 574.53 12850.64 667.51 12809.97 638.25 12725.51 706.38 12675.46 669.11 12563.89 765.7 12481.52 700.77 12415.83 784.53 12282.36 653.48 12193.73 761.29 12079.03 574.53 12920.5 574.53"/><ellipse cx="13498" cy="694.53" rx="486" ry="239.5"/><polygon class="cls-61" points="13921 574.53 13851.14 710.9 13810.47 667.99 13726 767.91 13675.95 713.25 13564.38 854.91 13482 759.69 13416.31 882.53 13282.84 690.33 13194.2 848.44 13079.5 574.53 13921 574.53"/><polygon class="cls-62" points="13079 574.53 13146 342.53 13185 415.53 13266 245.53 13314 338.53 13421 97.53 13500 259.53 13563 50.53 13691 377.53 13776 108.53 13886 574.53 13079 574.53"/><polygon class="cls-63" points="13114 574.03 13181 342.03 13220 415.03 13301 245.03 13349 338.03 13456 97.03 13535 259.03 13598 50.03 13726 377.03 13811 108.03 13921 574.03 13114 574.03"/><polygon class="cls-64" points="13142.5 573.53 13203.73 361.51 13239.37 428.23 13313.4 272.87 13357.26 357.86 13455.05 137.61 13527.24 285.66 13584.82 94.66 13701.79 393.5 13779.47 147.67 13880 573.53 13142.5 573.53"/><polygon class="cls-40" points="13920.5 574.53 13850.64 667.51 13809.97 638.25 13725.51 706.38 13675.46 669.11 13563.89 765.7 13481.52 700.77 13415.83 784.53 13282.36 653.48 13193.73 761.29 13079.03 574.53 13920.5 574.53"/><ellipse cx="14498" cy="694.53" rx="486" ry="239.5"/><polygon class="cls-65" points="14921 574.53 14851.14 710.9 14810.47 667.99 14726 767.91 14675.95 713.25 14564.38 854.91 14482 759.69 14416.31 882.53 14282.84 690.33 14194.2 848.44 14079.5 574.53 14921 574.53"/><polygon class="cls-66" points="14079 574.53 14146 342.53 14185 415.53 14266 245.53 14314 338.53 14421 97.53 14500 259.53 14563 50.53 14691 377.53 14776 108.53 14886 574.53 14079 574.53"/><polygon class="cls-67" points="14114 574.03 14181 342.03 14220 415.03 14301 245.03 14349 338.03 14456 97.03 14535 259.03 14598 50.03 14726 377.03 14811 108.03 14921 574.03 14114 574.03"/><polygon class="cls-68" points="14142.5 573.53 14203.73 361.51 14239.37 428.23 14313.4 272.87 14357.26 357.86 14455.05 137.61 14527.24 285.66 14584.82 94.66 14701.79 393.5 14779.47 147.67 14880 573.53 14142.5 573.53"/><polygon class="cls-40" points="14920.5 574.53 14850.64 667.51 14809.97 638.25 14725.51 706.38 14675.46 669.11 14563.89 765.7 14481.52 700.77 14415.83 784.53 14282.36 653.48 14193.73 761.29 14079.03 574.53 14920.5 574.53"/></svg>
