<svg id="Layer_1" data-name="Layer 1" xmlns="http://www.w3.org/2000/svg" width="625" height="180" viewBox="0 0 625 180"><defs><style>.cls-1{fill:gray;}.cls-2{fill:#666;}.cls-3{fill:#fff;}</style></defs><title>Artboard 8</title><rect class="cls-1" x="12" y="14" width="601" height="150" rx="12"/><rect class="cls-2" x="18" y="19" width="588" height="139" rx="12"/><path class="cls-3" d="M164.4,60.09V57h10.77v4.23h-.77Zm10.77,44.27v4.23H164.4v-3.08l10-1.15Zm-3.46-23.48c0-7.93,0-15.94-.23-23.87h7.39c-.23,7.77-.23,15.78-.23,23.87V83.8c0,8.86,0,16.86.23,24.79h-7.39c.23-7.77.23-15.78.23-24.79Zm3.46,24.17h9.94c12.09,0,18.71-8.16,18.71-22.17,0-14.55-6.62-22.33-18-22.33H175.17V57h11.94c14.63,0,24.79,9.08,24.79,25.87,0,16.63-11.39,25.71-26.33,25.71h-10.4Z"/><path class="cls-3" d="M224.15,108.59c.15-3.46.23-11.39.23-16.16V88.81c0-4.24-.08-6.62-.23-9.7l-6.32-.7V75.72l11.63-4.62,1.15.77-.23,10.39V92.43c0,4.77.08,12.7.23,16.16ZM236,105.9v2.69H218.29V105.9l8.47-1.54h1.54ZM222.22,57.55a5.09,5.09,0,0,1,10.17,0,5.09,5.09,0,0,1-10.17,0Z"/><path class="cls-3" d="M242.47,106.67l-.31-8.39h4.09l2.07,9.08-3.77-1.77V103a14.64,14.64,0,0,0,9.47,3.16c5.93,0,8.7-2.39,8.7-5.93,0-3.31-2.31-5-7.16-6.77L252,92.12C246.4,90,242.7,87,242.7,81.8c0-5.54,4.7-10.7,13.25-10.7a19.64,19.64,0,0,1,10.7,3.15L266.34,82h-3.85L261,74.25l2.77,1.24v2a12.56,12.56,0,0,0-7.85-2.93c-4.77,0-7.24,2.08-7.24,5.31,0,3.47,1.93,4.78,7.16,6.7l2.31.85c7.7,2.85,10.63,6.47,10.63,11.24,0,5.7-5,10.94-14.86,10.94A23.56,23.56,0,0,1,242.47,106.67Z"/><path class="cls-3" d="M281.51,89.73c0,9.7,5.16,15,12.4,15a12.44,12.44,0,0,0,10.78-6l1.84.92c-2.07,6.39-7,9.94-14.24,9.94-10.55,0-17.17-7.4-17.17-19.18,0-12.09,8.47-19.32,17.63-19.32,6.85,0,12.55,4.23,13.55,9.93a3.18,3.18,0,0,1-3.46,2.85c-2.54,0-3.54-1.54-4.08-3.47l-1.93-6.77,3.54,2.85A15.93,15.93,0,0,0,293,74.56C286.28,74.56,281.51,79.87,281.51,89.73Z"/><path class="cls-3" d="M312.77,90.5c0-12.78,8.7-19.4,17.56-19.4,8.7,0,17.55,6.62,17.55,19.4s-8.85,19.1-17.55,19.1C321.47,109.6,312.77,103.28,312.77,90.5Zm28.18,0c0-10.32-3.92-15.94-10.62-15.94S319.7,80.18,319.7,90.5s3.78,15.63,10.63,15.63S341,100.82,341,90.5Z"/><path class="cls-3" d="M359,76.33,351.43,75V72.1h18.48V75l-9.4,1.31Zm2.47-4.23,12,31.34-3.16,4,12.4-35.34h4.15l-14,37h-3.16l-15.55-37Zm21.09,4.23L374.83,75V72.1h14.63V75l-5.39,1.31Z"/><path class="cls-3" d="M424,85.8a15.84,15.84,0,0,1-.54,4.32H395.09V86.88h18.32c3.7,0,4.54-1.77,4.54-3.92a8.55,8.55,0,0,0-8.54-8.4c-4.93,0-10.63,4.16-10.63,15.17,0,9.78,4.93,15,12.63,15,4.93,0,8-2.24,10.78-5.47l1.77,1.38a15.64,15.64,0,0,1-14.71,8.94c-10.31,0-17-7.16-17-18.87s8-19.63,17.55-19.63C417.72,71.1,424,76.49,424,85.8Z"/><path class="cls-3" d="M437,92.43V88.81c0-4.24-.07-6.62-.23-9.7l-6.16-.7V75.72l10.47-4.62,1.16.77.92,9.62V92.43c0,4.77.08,12.7.23,16.16h-6.62C436.9,105.13,437,97.2,437,92.43ZM431.2,105.9l8.47-1.54h1.54l8.47,1.54v2.69H431.2ZM440.05,82h4.39l-1.92.54c2.46-7.16,7.16-11.47,11.7-11.47a6.63,6.63,0,0,1,5.47,2.62c0,3.61-1.39,5.62-4.47,5.62a7.06,7.06,0,0,1-4.62-1.85l-2.08-1.77,3.77-.77c-4.77,2.46-7.54,6.31-9.31,12.24h-2.93Z"/></svg>
