<svg id="Layer_1" data-name="Layer 1" xmlns="http://www.w3.org/2000/svg" width="625" height="180" viewBox="0 0 625 180"><defs><style>.cls-1{fill:#b3b3b3;stroke:#000;stroke-miterlimit:10;stroke-width:2px;}.cls-2{fill:#666;}.cls-3{fill:#fff;}.cls-4{fill:none;stroke:#ccc;stroke-linecap:round;stroke-linejoin:bevel;stroke-width:5px;fill-rule:evenodd;}</style></defs><title>Artboard 8</title><rect class="cls-1" x="125" y="39" width="400" height="100" rx="12"/><rect x="128.33" y="41.83" width="394.01" height="94.5" rx="12"/><rect class="cls-2" x="130.32" y="42.81" width="389.35" height="92.19" rx="12"/><path class="cls-3" d="M179.82,63.09V60H190.6v4.23h-.77Zm10.78,44.27v4.23H179.82v-3.08l10-1.15Zm-3.47-23.48c0-7.93,0-15.94-.23-23.87h7.39c-.23,7.77-.23,15.78-.23,23.87V86.8c0,8.86,0,16.86.23,24.79H186.9c.23-7.77.23-15.78.23-24.79Zm3.47,24.17h9.93c12.09,0,18.71-8.16,18.71-22.17,0-14.55-6.62-22.33-18-22.33H190.6V60h11.93c14.63,0,24.79,9.08,24.79,25.87,0,16.63-11.39,25.71-26.33,25.71H190.6Z"/><path class="cls-3" d="M239.57,111.59c.15-3.46.23-11.39.23-16.16V91.81c0-4.24-.08-6.62-.23-9.7l-6.32-.7V78.72l11.63-4.62,1.16.77-.24,10.39V95.43c0,4.77.08,12.7.24,16.16Zm11.86-2.69v2.69H233.72V108.9l8.47-1.54h1.54ZM237.64,60.55a5.09,5.09,0,0,1,10.17,0,5.09,5.09,0,0,1-10.17,0Z"/><path class="cls-3" d="M257.89,109.67l-.3-8.39h4.08l2.08,9.08L260,108.59V106a14.64,14.64,0,0,0,9.47,3.16c5.93,0,8.7-2.39,8.7-5.93,0-3.31-2.31-5-7.16-6.77l-3.54-1.31C261.82,93,258.12,90,258.12,84.8c0-5.54,4.7-10.7,13.25-10.7a19.61,19.61,0,0,1,10.7,3.15L281.76,85h-3.85l-1.54-7.78,2.77,1.24v2a12.56,12.56,0,0,0-7.85-2.93c-4.77,0-7.24,2.08-7.24,5.32,0,3.46,1.93,4.77,7.16,6.69l2.31.85c7.7,2.85,10.63,6.47,10.63,11.24,0,5.7-5,10.94-14.86,10.94A23.56,23.56,0,0,1,257.89,109.67Z"/><path class="cls-3" d="M296.93,92.73c0,9.7,5.16,15,12.4,15a12.44,12.44,0,0,0,10.78-6l1.85.92c-2.08,6.39-7,9.94-14.25,9.94-10.55,0-17.17-7.4-17.17-19.18,0-12.09,8.47-19.32,17.63-19.32,6.86,0,12.55,4.23,13.56,9.93a3.19,3.19,0,0,1-3.47,2.85c-2.54,0-3.54-1.54-4.08-3.47l-1.93-6.77,3.55,2.85a16,16,0,0,0-7.4-1.93C301.71,77.56,296.93,82.88,296.93,92.73Z"/><path class="cls-3" d="M328.19,93.5c0-12.78,8.7-19.4,17.56-19.4,8.7,0,17.55,6.62,17.55,19.4s-8.85,19.1-17.55,19.1C336.89,112.6,328.19,106.28,328.19,93.5Zm28.18,0c0-10.32-3.92-15.94-10.62-15.94-6.85,0-10.63,5.62-10.63,15.94s3.78,15.63,10.63,15.63C352.45,109.13,356.37,103.82,356.37,93.5Z"/><path class="cls-3" d="M374.39,79.33,366.85,78V75.1h18.48V78l-9.4,1.31Zm2.47-4.23,12,31.34-3.16,4,12.4-35.34h4.16l-14,37H385.1l-15.56-37ZM398,79.33,390.25,78V75.1h14.63V78l-5.39,1.31Z"/><path class="cls-3" d="M439.46,88.8a15.45,15.45,0,0,1-.54,4.32H410.51V89.88h18.32c3.7,0,4.54-1.77,4.54-3.92a8.55,8.55,0,0,0-8.54-8.4c-4.93,0-10.63,4.16-10.63,15.17,0,9.78,4.93,15,12.63,15,4.93,0,8-2.24,10.78-5.47l1.77,1.38a15.64,15.64,0,0,1-14.71,8.94c-10.31,0-17-7.16-17-18.87s8-19.63,17.55-19.63C433.14,74.1,439.46,79.49,439.46,88.8Z"/><path class="cls-3" d="M452.39,95.43V91.81c0-4.24-.07-6.62-.23-9.7l-6.16-.7V78.72l10.47-4.62,1.16.77.92,9.62V95.43c0,4.77.08,12.7.23,16.16h-6.62C452.32,108.13,452.39,100.2,452.39,95.43Zm-5.77,13.47,8.47-1.54h1.54l8.47,1.54v2.69H446.62ZM455.47,85h4.39l-1.92.54c2.46-7.16,7.16-11.47,11.7-11.47a6.63,6.63,0,0,1,5.47,2.62c0,3.61-1.39,5.62-4.47,5.62A7.06,7.06,0,0,1,466,80.49l-2.08-1.77,3.78-.77c-4.78,2.46-7.55,6.31-9.32,12.24h-2.93Z"/><path class="cls-4" d="M139.5,83V59.72c0-4.52,2.47-8.22,5.48-8.22h27.39"/><path class="cls-4" d="M509.37,91.27v23.28c0,4.52-2.47,8.22-5.48,8.22H476.5"/></svg>
