<svg id="Layer_1" data-name="Layer 1" xmlns="http://www.w3.org/2000/svg" width="420" height="114" viewBox="0 0 420 114"><defs><style>.cls-1{fill:#b3b3b3;stroke:#000;stroke-miterlimit:10;}.cls-2{fill:#666;}.cls-3{fill:#fff;}.cls-4{fill:none;stroke:#ccc;stroke-linecap:round;stroke-linejoin:bevel;stroke-width:5px;fill-rule:evenodd;}</style></defs><title>Artboard 8</title><rect class="cls-1" x="13" y="6" width="400" height="100" rx="12"/><rect x="17" y="8.83" width="392" height="94.5" rx="12"/><rect class="cls-2" x="18.32" y="9.81" width="389.35" height="92.19" rx="12"/><path class="cls-3" d="M65.14,71.81q-4.56-4.68-4.56-13.62V34.13H65V58q0,7.34,3.3,10.92t9.54,3.61q6.3,0,9.6-3.61T90.76,58V34.13h4.32V58.19q0,9-4.53,13.62T77.86,76.5Q69.7,76.5,65.14,71.81Z"/><path class="cls-3" d="M108.46,34.13h17.1a25.11,25.11,0,0,1,11.76,2.67,19.44,19.44,0,0,1,7.92,7.45,20.93,20.93,0,0,1,2.82,10.88A21,21,0,0,1,145.24,66a19.35,19.35,0,0,1-7.92,7.44,24.87,24.87,0,0,1-11.76,2.67h-17.1Zm16.86,38.16A20.25,20.25,0,0,0,135,70.1,15.84,15.84,0,0,0,141.4,64a17.2,17.2,0,0,0,2.28-8.91,17.22,17.22,0,0,0-2.28-8.91,15.82,15.82,0,0,0-6.42-6,20.37,20.37,0,0,0-9.66-2.2H112.9V72.29Z"/><path class="cls-3" d="M162.46,38v16.5h21.72v3.84H162.46V76.13H158v-42h28.8V38Z"/><path class="cls-3" d="M202.51,73.71a20.47,20.47,0,0,1-7.92-7.66,21.16,21.16,0,0,1-2.85-10.92,21.21,21.21,0,0,1,2.85-10.92,20.38,20.38,0,0,1,7.92-7.65,23.17,23.17,0,0,1,11.31-2.79,22.93,22.93,0,0,1,11.25,2.77A20.4,20.4,0,0,1,233,44.18a21.2,21.2,0,0,1,2.88,11A21.12,21.12,0,0,1,233,66.08a20.29,20.29,0,0,1-7.89,7.65,22.82,22.82,0,0,1-11.25,2.77A23.17,23.17,0,0,1,202.51,73.71Zm20.31-3.42a16.24,16.24,0,0,0,6.3-6.25,18.55,18.55,0,0,0,0-17.82,16.35,16.35,0,0,0-6.3-6.24,19.19,19.19,0,0,0-18,0,16.51,16.51,0,0,0-6.36,6.24,18.34,18.34,0,0,0,0,17.82,16.4,16.4,0,0,0,6.36,6.25,19.19,19.19,0,0,0,18,0Z"/><path class="cls-3" d="M274.48,76.13l-9.6-13.5a30.42,30.42,0,0,1-3.36.18H250.24V76.13H245.8v-42h15.72c5.36,0,9.56,1.29,12.6,3.84s4.56,6.09,4.56,10.57a13,13,0,0,1-9.6,13.19l10.26,14.4Zm-3.54-19.86a9.5,9.5,0,0,0,3.3-7.73q0-5.1-3.3-7.83T261.4,38H250.24V59H261.4Q267.64,59,270.94,56.27Z"/><path class="cls-3" d="M291.79,75a16.48,16.48,0,0,1-6.63-4l1.74-3.42A16.51,16.51,0,0,0,293,71.3a21.92,21.92,0,0,0,7.8,1.41q5.64,0,8.46-2.07A6.38,6.38,0,0,0,312,65.27a5.37,5.37,0,0,0-1.53-4,10.47,10.47,0,0,0-3.75-2.31,63.37,63.37,0,0,0-6.18-1.77,63.28,63.28,0,0,1-7.56-2.3,12.44,12.44,0,0,1-4.83-3.4,9,9,0,0,1-2-6.18,10.5,10.5,0,0,1,1.68-5.79A11.57,11.57,0,0,1,293,35.33a21.12,21.12,0,0,1,8.64-1.56,25.44,25.44,0,0,1,7,1,20,20,0,0,1,6,2.74L313.18,41a20.67,20.67,0,0,0-5.64-2.62,21.42,21.42,0,0,0-5.88-.87c-3.68,0-6.45.72-8.31,2.13a6.63,6.63,0,0,0-2.79,5.49,5.46,5.46,0,0,0,1.53,4,9.9,9.9,0,0,0,3.84,2.34c1.54.54,3.61,1.14,6.21,1.77a62.48,62.48,0,0,1,7.47,2.25,12.36,12.36,0,0,1,4.83,3.36,8.92,8.92,0,0,1,2,6.1,10.36,10.36,0,0,1-1.71,5.79A11.54,11.54,0,0,1,309.46,75a21.92,21.92,0,0,1-8.7,1.54A27,27,0,0,1,291.79,75Z"/><path class="cls-3" d="M339.1,56.39l-8.58,8.7v11h-4.44v-42h4.44V59.51l24.66-25.38h5.1l-18.18,19,19.44,23h-5.28Z"/><path class="cls-4" d="M27.5,50V26.72C27.5,22.2,30,18.5,33,18.5H60.37"/><path class="cls-4" d="M397.37,58.27V81.55c0,4.52-2.47,8.22-5.48,8.22H364.5"/></svg>
