<svg id="Layer_1" data-name="Layer 1" xmlns="http://www.w3.org/2000/svg" width="100" height="97" viewBox="0 0 100 97"><defs><style>.cls-1{fill:#b3b3b3;}.cls-2{fill:gray;}</style></defs><title>Logo i html</title><path class="cls-1" d="M9.26,68.57c-.24.8-.8,1-1.36.32-1.36-1.52-2-4.64-.4-9,3.92-10.8,14.4-29.76,20.72-40.4.72-1.2,1.28-1.28,2.08-.72,3,2.16,3.6,4.4,2.72,9.92a264.62,264.62,0,0,0-2.64,28.8A326.21,326.21,0,0,1,51,19.21c.64-1,1.36-.72,1.84.16C54.06,21.77,54,25,50.38,31c-4.72,7.84-14.88,27-19.6,37.68-.32.8-.72,1-1.6.48-2.4-1.28-3.52-3.2-3.92-8.32-.4-4.88-.08-15.68,1.36-27C20.62,44.09,12.46,59,9.26,68.57Z"/><path class="cls-1" d="M78.38,47.08A5.13,5.13,0,0,1,81.5,50.6c.16.64-.08,1-.88.88a19.66,19.66,0,0,0-4.48-.24c-2.72,5.2-5.52,11-8.16,17-.32.8-.88.88-1.36.16-1.12-1.6-1.84-3.92-.24-8.8a81.32,81.32,0,0,1,3.36-7.68c-5.84.72-12,1.76-15.76,1.76-2.48,5-5,10.24-7.28,15.6-.32.8-1,1-1.44.32-1.2-1.68-1.76-3.92-.4-8.8A88.21,88.21,0,0,1,48.3,52.6,5.24,5.24,0,0,1,45.58,50c-.48-1-.32-1.28,1-1.2,1.2.08,2.32.24,3.36.24C55.1,38.44,62.54,24.6,65.82,20c.72-1,1.44-.8,1.92.08,1.2,2.24,1,6.16-2,11.84-2.32,4.48-5.6,10.16-9.12,16.8,5.52-.72,10.48-2.08,15.76-2.4C77.58,36,84.62,23.24,87.82,19c.8-1,1.52-1,2,.08,1.12,2.32.88,6.08-2.48,12.08C84.94,35.48,81.82,40.84,78.38,47.08Z"/><path class="cls-2" d="M10.37,71.06c-.24.8-.8,1-1.36.32-1.36-1.52-2-4.64-.4-9C12.53,51.62,23,32.66,29.33,22c.72-1.2,1.28-1.28,2.08-.72,3,2.16,3.6,4.4,2.72,9.92A264.62,264.62,0,0,0,31.49,60,326.21,326.21,0,0,1,52.13,21.7c.64-1,1.36-.72,1.84.16,1.2,2.4,1.12,5.6-2.48,11.6-4.72,7.84-14.88,27-19.6,37.68-.32.8-.72,1-1.6.48-2.4-1.28-3.52-3.2-3.92-8.32-.4-4.88-.08-15.68,1.36-27C21.73,46.58,13.57,61.46,10.37,71.06Z"/><path class="cls-2" d="M80.49,50.57a5.13,5.13,0,0,1,3.12,3.52c.16.64-.08,1-.88.88a19.66,19.66,0,0,0-4.48-.24c-2.72,5.2-5.52,11-8.16,17-.32.8-.88.88-1.36.16-1.12-1.6-1.84-3.92-.24-8.8a81.32,81.32,0,0,1,3.36-7.68c-5.84.72-12,1.76-15.76,1.76-2.48,5-5,10.24-7.28,15.6-.32.8-1,1-1.44.32-1.2-1.68-1.76-3.92-.4-8.8a88.21,88.21,0,0,1,3.44-8.16,5.24,5.24,0,0,1-2.72-2.56c-.48-1-.32-1.28,1-1.2,1.2.08,2.32.24,3.36.24,5.12-10.64,12.56-24.48,15.84-29.12.72-1,1.44-.8,1.92.08,1.2,2.24,1,6.16-2,11.84-2.32,4.48-5.6,10.16-9.12,16.8,5.52-.72,10.48-2.08,15.76-2.4,5.2-10.32,12.24-23,15.44-27.28.8-1,1.52-1,2,.08,1.12,2.32.88,6.08-2.48,12.08C87.05,39,83.93,44.33,80.49,50.57Z"/></svg>
