<?xml version="1.0" standalone="no"?>
<!DOCTYPE svg PUBLIC "-//W3C//DTD SVG 20010904//EN"
 "http://www.w3.org/TR/2001/REC-SVG-20010904/DTD/svg10.dtd">
<svg version="1.0" xmlns="http://www.w3.org/2000/svg"
 width="513.000000pt" height="513.000000pt" viewBox="0 0 513.000000 513.000000"
 preserveAspectRatio="xMidYMid meet">
<metadata>
Created by potrace 1.11, written by Peter Selinger 2001-2013
</metadata>
<g transform="translate(0.000000,513.000000) scale(0.100000,-0.100000)"
fill="#000000" stroke="none">
<path d="M1428 4003 c-9 -10 -30 -43 -47 -73 -18 -30 -36 -62 -42 -70 -20 -32
-159 -274 -209 -365 -18 -33 -36 -64 -40 -70 -4 -5 -27 -46 -50 -90 -24 -44
-50 -93 -60 -110 -32 -58 -109 -201 -170 -315 -67 -126 -340 -676 -340 -684 0
-3 -12 -31 -26 -63 -127 -279 -166 -402 -170 -534 -3 -78 0 -105 17 -150 11
-30 24 -58 29 -64 4 -5 13 -35 20 -65 16 -69 46 -124 76 -141 31 -16 46 -3 69
59 128 355 325 763 662 1372 69 124 127 227 128 229 2 1 2 -19 0 -45 -2 -27
-7 -96 -10 -154 -4 -58 -9 -121 -11 -140 -2 -19 -6 -179 -9 -355 -5 -387 10
-549 62 -649 8 -15 21 -52 29 -82 30 -115 85 -193 166 -235 66 -34 75 -29 119
67 94 203 129 276 288 594 154 308 192 381 301 585 140 262 177 331 200 370
10 17 29 51 44 78 63 114 83 148 146 257 146 250 183 348 184 485 1 78 -3 98
-27 149 -15 32 -30 72 -32 88 -8 44 -37 112 -54 125 -40 31 -58 15 -155 -142
-94 -153 -174 -288 -300 -512 -107 -189 -97 -172 -232 -418 -21 -38 -116 -225
-211 -415 l-174 -345 6 90 c3 50 8 113 10 140 3 28 7 86 10 130 5 79 12 148
20 215 2 19 7 67 10 105 3 39 8 77 10 85 2 8 6 46 10 83 3 37 8 76 9 85 2 9 7
40 10 67 4 28 10 64 13 80 25 148 33 274 22 348 -5 28 -20 73 -34 101 -13 28
-27 67 -30 86 -12 70 -50 130 -124 193 -49 41 -88 48 -113 20z"/>
<path d="M4639 3949 c-24 -24 -144 -206 -210 -319 -24 -41 -50 -87 -59 -101
-8 -14 -60 -106 -114 -205 -55 -98 -106 -190 -114 -203 -8 -13 -29 -52 -47
-85 -17 -34 -59 -113 -92 -176 -34 -63 -89 -170 -123 -236 l-63 -122 -86 -8
c-47 -4 -88 -8 -91 -9 -3 0 -32 -5 -65 -9 -59 -8 -76 -11 -125 -21 -14 -3 -43
-8 -65 -11 -22 -3 -71 -12 -110 -19 -38 -8 -71 -12 -73 -10 -4 4 55 116 168
320 201 362 281 537 309 673 26 128 4 286 -44 318 -16 11 -25 26 -25 43 0 42
-33 123 -57 138 -12 8 -30 12 -40 9 -31 -10 -170 -229 -326 -516 -16 -30 -33
-59 -37 -65 -7 -10 -49 -88 -185 -345 -36 -69 -123 -239 -192 -379 l-127 -253
-85 7 c-108 9 -143 7 -152 -7 -12 -20 13 -70 61 -120 25 -26 41 -48 34 -48
-21 0 -22 -25 -4 -65 16 -34 17 -44 5 -70 -89 -206 -113 -265 -120 -290 -4
-16 -9 -34 -11 -40 -50 -178 -38 -370 30 -437 8 -9 18 -30 21 -46 6 -36 38
-110 58 -134 8 -10 24 -18 36 -18 18 0 28 14 53 68 16 37 43 96 60 132 16 36
49 108 73 160 24 52 86 184 138 293 l96 197 63 1 c35 0 70 2 78 3 8 2 49 6 90
10 41 4 105 11 143 17 37 5 86 11 110 14 23 3 68 9 100 14 31 4 57 6 57 4 0
-1 -15 -40 -34 -85 -39 -97 -63 -169 -71 -217 -3 -19 -8 -37 -10 -41 -8 -13
-8 -154 0 -198 4 -23 22 -66 39 -95 17 -29 40 -80 50 -114 11 -35 22 -63 26
-63 4 0 13 -11 20 -25 14 -27 41 -33 58 -12 5 6 30 57 54 112 83 187 142 310
263 550 l120 240 90 0 c50 0 109 -3 132 -6 53 -8 68 6 58 53 -8 35 -43 96 -68
116 -8 7 -13 21 -10 31 3 11 -4 39 -15 64 l-20 45 35 69 c20 37 42 75 49 84 8
8 14 19 14 24 0 5 29 58 64 119 300 523 380 683 401 805 3 19 8 38 10 42 8 13
8 143 0 179 -10 47 -34 92 -56 108 -11 7 -19 24 -19 37 0 37 -30 118 -48 133
-23 18 -49 15 -73 -9z"/>
</g>
</svg>
